<?xml version="1.0" encoding="UTF-8" standalone="no"?>
<!DOCTYPE svg PUBLIC "-//W3C//DTD SVG 1.1//EN"
"http://www.w3.org/Graphics/SVG/1.1/DTD/svg11.dtd">
<svg viewBox="0 0 909 1286" version="1.1" xmlns="http://www.w3.org/2000/svg" xmlns:xlink="http://www.w3.org/1999/xlink">
<defs>
<clipPath id="c0_169"><path d="M35.1,1194.7V113.1H873.9V1194.7Z" /></clipPath>
</defs>
<g clip-path="url(#c0_169)">
<g fill="#000000" >
<use xlink:href="#f0_1a" transform="matrix(12,0,0,12,47.4,136)" />
<use xlink:href="#f0_7" transform="matrix(12,0,0,12,54.7,136)" />
<use xlink:href="#f0_1b" transform="matrix(12,0,0,12,61.1,136)" />
<use xlink:href="#f0_5" transform="matrix(12,0,0,12,73.2,136)" />
<use xlink:href="#f0_4" transform="matrix(12,0,0,12,83.7,136)" />
<use xlink:href="#f0_u" transform="matrix(12,0,0,12,91.1,136)" />
<use xlink:href="#f0_5" transform="matrix(12,0,0,12,103.3,136)" />
<use xlink:href="#f0_d" transform="matrix(12,0,0,12,113.7,136)" />
<use xlink:href="#f0_5" transform="matrix(12,0,0,12,126,136)" />
<use xlink:href="#f0_1a" transform="matrix(12,0,0,12,141.2,136)" />
<use xlink:href="#f0_7" transform="matrix(12,0,0,12,148.5,136)" />
<use xlink:href="#f0_7" transform="matrix(12,0,0,12,155,136)" />
<use xlink:href="#f0_1b" transform="matrix(12,0,0,12,161.4,136)" />
<use xlink:href="#f0_u" transform="matrix(12,0,0,12,173.5,136)" />
<use xlink:href="#f0_5" transform="matrix(12,0,0,12,185.7,136)" />
<use xlink:href="#f0_1y" transform="matrix(12,0,0,12,196.2,136)" />
<use xlink:href="#f0_3" transform="matrix(12,0,0,12,208,136)" />
<use xlink:href="#f0_d" transform="matrix(12,0,0,12,219,136)" />
<use xlink:href="#f0_5" transform="matrix(12,0,0,12,231.2,136)" />
<use xlink:href="#f0_n" transform="matrix(12,0,0,12,241.7,136)" />
<use xlink:href="#f0_13" transform="matrix(12,0,0,12,47.4,186.4)" />
<use xlink:href="#f0_d" transform="matrix(12,0,0,12,61.2,186.4)" />
<use xlink:href="#f0_s" transform="matrix(12,0,0,12,73.4,186.4)" />
<use xlink:href="#f0_20" transform="matrix(12,0,0,12,82.3,186.4)" />
</g>
</g>
<image preserveAspectRatio="none" x="47" y="214" width="737" height="370" xlink:href="img/1.png" />
<g fill="#000000" >
<use xlink:href="#f1_q" transform="matrix(12,0,0,12,844.9,1269.6)" />
</g>
<defs>
<path d="M562,-212c0,0,-127,52,-217,121c0,0,-91,68,-147,155c0,0,-58,87,-84,193c0,0,-27,104,-27,229c0,0,0,123,27,228c0,0,26,104,84,191c0,0,56,86,147,155c0,0,90,68,217,119v-96c0,0,-70,-47,-115,-112c0,0,-45,-66,-70,-143c0,0,-26,-78,-35,-164c0,0,-10,-88,-9,-178c0,0,-1,-91,9,-179c0,0,9,-88,35,-165c0,0,25,-79,70,-143c0,0,45,-67,115,-113v-98Z" 
id="f0_1a"
transform="scale(0.001,-0.001)" />

<path d="M26,0V81H44c0,0,16,0,37,4c0,0,17,3,35,13c0,0,15,10,26,30c0,0,10,19,11,53V645c0,0,-1,29,-11,49c0,0,-11,18,-27,28c0,0,-17,9,-35,13c0,0,-20,3,-36,3H26v81H385V181c0,0,0,-34,11,-53c0,0,10,-20,27,-30c0,0,16,-10,35,-13c0,0,19,-4,36,-4h18V0ZM261,956c0,0,-28,0,-51,7c0,0,-24,7,-41,20c0,0,-18,13,-27,35c0,0,-11,20,-11,49c0,0,0,28,11,50c0,0,9,21,27,34c0,0,17,12,41,19c0,0,23,6,51,6c0,0,25,0,50,-6c0,0,23,-7,42,-19c0,0,18,-13,29,-34c0,0,10,-22,10,-50c0,0,0,-29,-10,-49c0,0,-11,-22,-29,-35c0,0,-19,-13,-42,-20c0,0,-25,-7,-50,-7Z" 
id="f0_7"
transform="scale(0.001,-0.001)" />

<path d="M49,-212v98c0,0,70,46,116,113c0,0,44,64,70,143c0,0,24,77,34,165c0,0,9,88,9,179c0,0,0,90,-9,178c0,0,-10,86,-34,164c0,0,-26,77,-70,143c0,0,-46,65,-116,112v96c0,0,127,-51,218,-119c0,0,90,-69,148,-155c0,0,56,-87,83,-191c0,0,25,-105,26,-228c0,0,-1,-125,-26,-229c0,0,-27,-106,-83,-193c0,0,-58,-87,-148,-155c0,0,-91,-69,-218,-121Z" 
id="f0_1b"
transform="scale(0.001,-0.001)" />

<path d="M574,490c0,0,0,58,-6,105c0,0,-8,45,-22,78c0,0,-15,32,-37,49c0,0,-24,17,-56,17c0,0,-65,0,-103,-63c0,0,-38,-64,-38,-186ZM468,-14c0,0,-98,0,-171,27c0,0,-75,28,-125,82c0,0,-50,54,-75,133c0,0,-26,76,-25,177c0,0,-1,107,25,189c0,0,25,80,74,136c0,0,48,53,119,82c0,0,70,26,161,26c0,0,82,0,149,-23c0,0,65,-24,112,-70c0,0,46,-47,71,-115c0,0,25,-69,25,-159V392H308c0,0,0,-77,15,-132c0,0,14,-55,40,-91c0,0,26,-36,63,-53c0,0,37,-17,85,-17c0,0,1,0,2,0c8,0,41,1,71,10c0,0,34,9,61,26c0,0,28,16,48,40c0,0,21,22,34,48c0,0,41,-22,41,-75c0,0,0,-32,-18,-61c0,0,-18,-31,-55,-53C695,34,658,12,602,0c0,0,-57,-14,-134,-14Z" 
id="f0_5"
transform="scale(0.001,-0.001)" />

<path d="M371,-14c0,0,-52,0,-93,13c0,0,-42,11,-71,40c0,0,-29,27,-44,74c0,0,-16,46,-16,113V715H32v78c0,0,49,0,88,19c0,0,38,19,62,45c0,0,46,49,70,152H379V819H574V715H379V242c0,0,0,-70,24,-102c0,0,22,-32,75,-32c0,0,1,0,2,0c0,0,29,0,57,5c0,0,27,3,51,9V23c0,0,-13,-6,-32,-13C556,10,534,4,508,0c0,0,-28,-7,-62,-10c0,0,-35,-4,-75,-4Z" 
id="f0_4"
transform="scale(0.001,-0.001)" />

<path d="M31,0V81h3c0,0,25,0,47,4c0,0,21,3,38,14c0,0,16,11,25,32c0,0,9,20,9,55V987c0,0,-1,30,-11,49c0,0,-11,18,-27,29c0,0,-17,8,-35,12c0,0,-20,3,-36,3H26v81H383V909c0,0,0,-30,0,-64c0,0,0,-35,-3,-63c0,0,-4,-35,-7,-67h13c0,0,24,43,50,68c0,0,25,24,54,37c0,0,29,12,62,16c0,0,32,2,68,2c0,0,59,0,106,-17c0,0,47,-17,80,-53c0,0,32,-36,49,-91c0,0,16,-56,17,-133V189c0,0,0,-35,7,-56c0,0,5,-22,18,-33c0,0,12,-12,33,-15c0,0,18,-4,45,-4h4V0H640V503c0,0,-1,48,-6,88c0,0,-7,38,-21,64c0,0,-15,25,-38,40c0,0,-24,14,-57,14c0,0,-38,-1,-64,-20c0,0,-26,-19,-40,-51c0,0,-16,-33,-22,-76c0,0,-7,-44,-7,-90V181c0,0,0,-33,8,-52c0,0,7,-20,22,-30c0,0,13,-11,35,-14c0,0,19,-4,45,-4h5V0Z" 
id="f0_u"
transform="scale(0.001,-0.001)" />

<path d="M31,0V81h3c0,0,25,0,47,4c0,0,21,3,38,14c0,0,16,11,25,32c0,0,9,20,9,55V639c0,0,0,32,-8,51c0,0,-8,19,-22,31c0,0,-15,9,-35,14c0,0,-20,3,-45,3H38v81H359L379,710h7c0,0,24,43,50,69c0,0,25,25,54,39c0,0,29,13,62,17c0,0,32,3,68,3c0,0,59,0,106,-17c0,0,47,-17,80,-53c0,0,32,-36,49,-91c0,0,16,-56,17,-133V189c0,0,0,-35,7,-56c0,0,5,-22,18,-33c0,0,12,-12,33,-15c0,0,18,-4,45,-4h4V0H640V503c0,0,-1,48,-6,88c0,0,-7,38,-21,64c0,0,-15,25,-38,40c0,0,-24,14,-57,14c0,0,-38,-1,-64,-20c0,0,-26,-19,-40,-51c0,0,-16,-33,-22,-76c0,0,-7,-44,-7,-90V181c0,0,0,-33,8,-52c0,0,7,-20,22,-30c0,0,13,-11,35,-14c0,0,19,-4,45,-4h5V0Z" 
id="f0_d"
transform="scale(0.001,-0.001)" />

<path d="M17,0V81H31c0,0,1,0,3,0c7,0,28,1,45,6c0,0,20,4,40,15c0,0,17,11,36,30c0,0,18,19,42,47L389,411L197,657c0,0,-33,40,-64,61c0,0,-33,20,-67,20H46v81H526V738h-5c0,0,-26,0,-43,-3c0,0,-17,-5,-27,-10c0,0,-10,-7,-13,-14c0,0,-4,-8,-4,-17c0,0,0,-17,8,-32c0,0,8,-15,27,-38L554,519l73,87c0,0,18,23,28,44c0,0,10,21,10,42c0,0,0,28,-21,37c0,0,-22,9,-58,9h-4v81H935V738H921c0,0,-23,-1,-39,-4c0,0,-19,-5,-35,-15c0,0,-18,-11,-37,-30c0,0,-19,-19,-43,-49L609,448L834,162c0,0,34,-44,65,-62c0,0,28,-19,56,-19c0,0,1,0,1,0h20V0H490V81h9c5,0,91,1,91,50c0,0,0,9,-2,18c0,0,-3,8,-8,21c0,0,-6,11,-18,28c0,0,-12,16,-30,38L445,342L338,210c0,0,-15,-20,-23,-38c0,0,-9,-21,-9,-39c0,0,0,-26,21,-38c0,0,21,-14,74,-14h4V0Z" 
id="f0_1y"
transform="scale(0.001,-0.001)" />

<path d="M392,96c0,0,32,0,60,14c0,0,25,13,46,38c0,0,18,26,29,62c0,0,9,35,9,79V403H468c0,0,-47,-1,-77,-13c0,0,-31,-13,-50,-34c0,0,-19,-22,-27,-53c0,0,-8,-33,-8,-74c0,0,-1,-67,21,-100c0,0,21,-33,65,-33ZM314,-14c-2,0,-3,0,-5,0c0,0,-51,0,-94,14c0,0,-44,15,-76,46c0,0,-33,32,-52,79c0,0,-19,47,-18,111c0,0,-1,125,85,185c0,0,85,61,257,61H536v86c0,0,0,38,-3,71c0,0,-3,32,-12,57c0,0,-11,23,-29,37c0,0,-19,11,-50,12c0,0,-30,0,-49,-12c0,0,-20,-13,-32,-34c0,0,-13,-22,-16,-52c0,0,-6,-31,-6,-67h-1c-11,0,-105,1,-153,24c0,0,-53,23,-52,79c0,0,-1,41,25,71c0,0,24,29,68,49c0,0,43,18,100,27c0,0,57,8,122,8c0,0,80,0,141,-13c0,0,59,-15,100,-45c0,0,38,-30,59,-80c0,0,20,-50,20,-121V189c0,0,0,-31,6,-52c0,0,4,-21,15,-33c0,0,9,-12,28,-17c0,0,15,-6,39,-6c1,0,3,0,4,0h6V0H582L550,105H536c0,0,-26,-30,-47,-53c0,0,-23,-24,-48,-38C441,14,415,0,384,-6c0,0,-30,-8,-70,-8Z" 
id="f0_3"
transform="scale(0.001,-0.001)" />

<path d="M232,-11c0,0,-26,0,-49,7c0,0,-24,4,-40,19c0,0,-17,13,-27,37c0,0,-10,23,-9,58c0,0,-1,34,9,59c0,0,10,22,27,37c0,0,16,14,40,20c0,0,23,5,49,6c0,0,25,-1,48,-6c0,0,23,-6,40,-20c0,0,16,-15,28,-37c0,0,9,-25,9,-59c0,0,0,-35,-9,-58c0,0,-12,-24,-28,-37C320,15,303,0,280,-4c0,0,-23,-7,-48,-7Z" 
id="f0_n"
transform="scale(0.001,-0.001)" />

<path d="M674,452L593,703c0,0,-9,25,-16,55c0,0,-10,28,-18,58c0,0,-8,29,-16,60c0,0,-9,29,-14,56c0,0,-7,-24,-16,-51c0,0,-9,-28,-18,-57c0,0,-11,-29,-21,-58c0,0,-10,-29,-19,-56L365,452ZM6,0V81H25c0,0,20,0,37,5c0,0,16,4,31,17c0,0,14,12,28,34c0,0,12,20,26,55l331,899H688L1007,191c0,0,11,-33,24,-53c0,0,12,-22,27,-34c0,0,13,-12,30,-17c0,0,15,-6,32,-6c1,0,2,0,3,0h27V0H646V81h60c0,0,10,0,23,4c0,0,11,2,21,10c0,0,9,7,15,18c0,0,6,12,6,27c0,0,0,19,-4,36c0,0,-5,16,-9,30L704,359H333L289,228c0,0,-7,-20,-12,-44c0,0,-7,-26,-7,-44c0,0,0,-15,6,-26c0,0,5,-11,16,-18c0,0,9,-8,22,-11c0,0,12,-4,25,-4h65V0Z" 
id="f0_13"
transform="scale(0.001,-0.001)" />

<path d="M357,-14c-1,0,-3,0,-4,0c0,0,-83,0,-141,14c0,0,-60,12,-96,36c0,0,-37,23,-53,57c0,0,-17,32,-17,70c0,0,0,37,14,61c0,0,15,22,37,35c0,0,21,12,46,17c0,0,25,3,45,4c0,0,-1,-49,12,-86c0,0,12,-39,33,-64c0,0,21,-27,53,-41c0,0,28,-14,64,-14c1,0,2,0,3,0c0,0,39,0,68,8c0,0,28,7,47,23c0,0,18,14,27,34c0,0,9,17,9,39c0,0,0,25,-9,46c0,0,-10,18,-31,37c0,0,-22,16,-57,34c0,0,-38,16,-91,35c0,0,-62,21,-109,46c0,0,-48,24,-79,56c0,0,-33,30,-50,71c0,0,-17,38,-17,91c0,0,0,60,24,106c0,0,22,46,66,76c0,0,44,30,104,45c0,0,61,14,134,15c0,0,73,0,123,-12c0,0,50,-13,83,-33c0,0,32,-20,47,-45c0,0,14,-26,15,-52c0,0,0,-51,-36,-78c0,0,-37,-27,-120,-27c0,0,0,76,-33,119c0,0,-35,41,-101,41c0,0,-25,0,-47,-6c0,0,-24,-5,-40,-17c0,0,-17,-13,-26,-30c0,0,-11,-18,-11,-41c0,0,-1,-26,10,-44c0,0,9,-20,33,-37c0,0,23,-18,63,-36c0,0,40,-18,103,-39c0,0,50,-18,94,-40c0,0,43,-24,74,-53c0,0,30,-30,48,-67c0,0,16,-39,17,-86c0,0,-1,-65,-22,-114c0,0,-22,-50,-65,-84C598,56,555,21,494,4c0,0,-60,-18,-137,-18Z" 
id="f0_s"
transform="scale(0.001,-0.001)" />

<path d="M232,-11c0,0,-26,0,-49,7c0,0,-24,4,-40,19c0,0,-17,13,-27,37c0,0,-10,23,-9,58c0,0,-1,34,9,59c0,0,10,22,27,37c0,0,16,14,40,20c0,0,23,5,49,6c0,0,25,-1,48,-6c0,0,23,-6,40,-20c0,0,16,-15,28,-37c0,0,9,-25,9,-59c0,0,0,-35,-9,-58c0,0,-12,-24,-28,-37C320,15,303,0,280,-4c0,0,-23,-7,-48,-7Zm0,599c0,0,-26,0,-49,7c0,0,-24,5,-40,20c0,0,-17,14,-27,38c0,0,-10,22,-9,57c0,0,-1,34,9,59c0,0,10,22,27,37c0,0,16,15,40,21c0,0,23,5,49,6c0,0,25,-1,48,-6c0,0,23,-6,40,-21c0,0,16,-15,28,-37c0,0,9,-25,9,-59c0,0,0,-35,-9,-57c0,0,-12,-24,-28,-38c0,0,-17,-15,-40,-20c0,0,-23,-7,-48,-7Z" 
id="f0_20"
transform="scale(0.001,-0.001)" />

<path d="M405,24c0,0,65,0,116,62c0,0,51,61,51,174c0,0,0,128,-50,221c0,0,-51,93,-144,93c0,0,-29,0,-61,-12c0,0,-33,-12,-96,-51c0,0,-14,-101,-14,-163c0,0,0,-72,27,-155c0,0,26,-84,79,-134c0,0,38,-35,92,-35ZM384,-17c0,0,-104,0,-177,68C207,51,66,185,66,397c0,0,0,136,54,258c0,0,54,122,156,217c0,0,101,95,193,128c0,0,93,33,172,33h44v-28c0,0,-99,-10,-161,-39c0,0,-62,-29,-123,-90c0,0,-61,-60,-101,-135c0,0,-39,-74,-66,-176c0,0,107,73,215,73c0,0,104,0,180,-83c0,0,76,-84,76,-215c0,0,0,-126,-77,-231c0,0,-92,-126,-244,-126Z" 
id="f1_q"
transform="scale(0.001,-0.001)" />


</defs>
</svg>