<?xml version="1.0" encoding="UTF-8" standalone="no"?>
<!DOCTYPE svg PUBLIC "-//W3C//DTD SVG 1.1//EN"
"http://www.w3.org/Graphics/SVG/1.1/DTD/svg11.dtd">
<svg viewBox="0 0 909 1286" version="1.1" xmlns="http://www.w3.org/2000/svg" xmlns:xlink="http://www.w3.org/1999/xlink">
<defs>
</defs>
<image preserveAspectRatio="none" x="47" y="113" width="563" height="37" xlink:href="img/1.png" />
<image preserveAspectRatio="none" x="47" y="168" width="275" height="40" xlink:href="img/2.png" />
<image preserveAspectRatio="none" x="47" y="226" width="639" height="73" xlink:href="img/3.png" />
<g fill="#000000" >
<use xlink:href="#f0_l" transform="matrix(12,0,0,12,835.7,1269.6)" />
<use xlink:href="#f0_l" transform="matrix(12,0,0,12,844.9,1269.6)" />
</g>
<defs>
<path d="M197,0V27c0,0,71,2,92,13c0,0,21,10,29,29c0,0,9,18,9,109V725c0,0,0,110,-8,141c0,0,-5,24,-19,35c0,0,-14,11,-33,11c0,0,-28,0,-77,-23l-11,23l246,121h25V178c0,0,0,-85,7,-106c0,0,7,-21,29,-32c0,0,23,-11,91,-13V0Z" 
id="f0_l"
transform="scale(0.001,-0.001)" />


</defs>
</svg>