<?xml version="1.0" encoding="UTF-8" standalone="no"?>
<!DOCTYPE svg PUBLIC "-//W3C//DTD SVG 1.1//EN"
"http://www.w3.org/Graphics/SVG/1.1/DTD/svg11.dtd">
<svg viewBox="0 0 909 1286" version="1.1" xmlns="http://www.w3.org/2000/svg" xmlns:xlink="http://www.w3.org/1999/xlink">
<defs>
<clipPath id="c0_155"><path d="M35.1,1194.7V113.1H873.9V1194.7Z" /></clipPath>
</defs>
<image preserveAspectRatio="none" x="47" y="113" width="196" height="371" xlink:href="img/1.png" />
<image preserveAspectRatio="none" x="47" y="503" width="191" height="414" xlink:href="img/2.png" />
<g clip-path="url(#c0_155)">
<g fill="#000000" >
<use xlink:href="#f0_s" transform="matrix(12,0,0,12,47.4,977.8)" />
<use xlink:href="#f0_s" transform="matrix(12,0,0,12,57.6,977.8)" />
<use xlink:href="#f0_n" transform="matrix(12,0,0,12,67.8,977.8)" />
<use xlink:href="#f0_1m" transform="matrix(12,0,0,12,73.4,977.8)" />
<use xlink:href="#f0_6" transform="matrix(12,0,0,12,87.5,977.8)" />
<use xlink:href="#f0_3" transform="matrix(12,0,0,12,97,977.8)" />
<use xlink:href="#f0_c" transform="matrix(12,0,0,12,108,977.8)" />
<use xlink:href="#f0_4" transform="matrix(12,0,0,12,128.5,977.8)" />
<use xlink:href="#f0_t" transform="matrix(12,0,0,12,135.9,977.8)" />
<use xlink:href="#f0_5" transform="matrix(12,0,0,12,148.1,977.8)" />
<use xlink:href="#f0_b" transform="matrix(12,0,0,12,163.3,977.8)" />
<use xlink:href="#f0_6" transform="matrix(12,0,0,12,174.5,977.8)" />
<use xlink:href="#f0_18" transform="matrix(12,0,0,12,184.1,977.8)" />
<use xlink:href="#f0_7" transform="matrix(12,0,0,12,196,977.8)" />
<use xlink:href="#f0_4" transform="matrix(12,0,0,12,202.4,977.8)" />
<use xlink:href="#f0_3" transform="matrix(12,0,0,12,209.8,977.8)" />
<use xlink:href="#f0_8" transform="matrix(12,0,0,12,220.8,977.8)" />
<use xlink:href="#f0_a" transform="matrix(12,0,0,12,232,977.8)" />
<use xlink:href="#f0_7" transform="matrix(12,0,0,12,243.9,977.8)" />
<use xlink:href="#f0_3" transform="matrix(12,0,0,12,250.3,977.8)" />
<use xlink:href="#f0_l" transform="matrix(12,0,0,12,261.3,977.8)" />
<use xlink:href="#f0_6" transform="matrix(12,0,0,12,271.6,977.8)" />
<use xlink:href="#f0_3" transform="matrix(12,0,0,12,281.1,977.8)" />
<use xlink:href="#f0_f" transform="matrix(12,0,0,12,292.1,977.8)" />
<use xlink:href="#f0_r" transform="matrix(12,0,0,12,314.9,977.8)" />
<use xlink:href="#f0_t" transform="matrix(12,0,0,12,323.9,977.8)" />
<use xlink:href="#f0_b" transform="matrix(12,0,0,12,336.1,977.8)" />
<use xlink:href="#f0_c" transform="matrix(12,0,0,12,347.3,977.8)" />
<use xlink:href="#f0_7" transform="matrix(12,0,0,12,363,977.8)" />
<use xlink:href="#f0_d" transform="matrix(12,0,0,12,369.4,977.8)" />
<use xlink:href="#f0_l" transform="matrix(12,0,0,12,381.7,977.8)" />
<use xlink:href="#f1_2" transform="matrix(12,0,0,12,396.7,977.8)" />
<use xlink:href="#f1_3" transform="matrix(12,0,0,12,408.7,977.8)" />
<use xlink:href="#f1_4" transform="matrix(12,0,0,12,419.4,977.8)" />
<use xlink:href="#f1_5" transform="matrix(12,0,0,12,430.8,977.8)" />
<use xlink:href="#f1_6" transform="matrix(12,0,0,12,440.6,977.8)" />
<use xlink:href="#f1_7" transform="matrix(12,0,0,12,450.7,977.8)" />
<use xlink:href="#f1_8" transform="matrix(12,0,0,12,460.4,977.8)" />
<use xlink:href="#f1_9" transform="matrix(12,0,0,12,471.7,977.8)" />
<use xlink:href="#f1_a" transform="matrix(12,0,0,12,484,977.8)" />
<use xlink:href="#f1_b" transform="matrix(12,0,0,12,490.2,977.8)" />
<use xlink:href="#f1_c" transform="matrix(12,0,0,12,502.5,977.8)" />
<use xlink:href="#f1_d" transform="matrix(12,0,0,12,513.2,977.8)" />
<use xlink:href="#f1_e" transform="matrix(12,0,0,12,525.3,977.8)" />
<use xlink:href="#f1_f" transform="matrix(12,0,0,12,533,977.8)" />
<use xlink:href="#f1_8" transform="matrix(12,0,0,12,539.4,977.8)" />
<use xlink:href="#f1_9" transform="matrix(12,0,0,12,550.8,977.8)" />
<use xlink:href="#f0_7" transform="matrix(12,0,0,12,567.8,977.8)" />
<use xlink:href="#f0_d" transform="matrix(12,0,0,12,574.3,977.8)" />
<use xlink:href="#f0_5" transform="matrix(12,0,0,12,591.3,977.8)" />
<use xlink:href="#f0_4" transform="matrix(12,0,0,12,601.7,977.8)" />
<use xlink:href="#f0_t" transform="matrix(12,0,0,12,609.1,977.8)" />
<use xlink:href="#f0_g" transform="matrix(12,0,0,12,621.3,977.8)" />
<use xlink:href="#f0_8" transform="matrix(12,0,0,12,631.9,977.8)" />
<use xlink:href="#f0_o" transform="matrix(12,0,0,12,643.1,977.8)" />
<use xlink:href="#f0_3" transform="matrix(12,0,0,12,652.8,977.8)" />
<use xlink:href="#f0_4" transform="matrix(12,0,0,12,663.7,977.8)" />
<use xlink:href="#f0_7" transform="matrix(12,0,0,12,671.1,977.8)" />
<use xlink:href="#f0_b" transform="matrix(12,0,0,12,677.6,977.8)" />
<use xlink:href="#f0_d" transform="matrix(12,0,0,12,688.8,977.8)" />
<use xlink:href="#f0_r" transform="matrix(12,0,0,12,701,977.8)" />
<use xlink:href="#f0_1a" transform="matrix(12,0,0,12,47.4,1028.2)" />
<use xlink:href="#f0_d" transform="matrix(12,0,0,12,61.2,1028.2)" />
<use xlink:href="#f0_r" transform="matrix(12,0,0,12,73.4,1028.2)" />
<use xlink:href="#f0_n" transform="matrix(12,0,0,12,82.3,1028.2)" />
</g>
</g>
<g fill="#000000" >
<use xlink:href="#f2_l" transform="matrix(12,0,0,12,835.7,1269.6)" />
<use xlink:href="#f2_n" transform="matrix(12,0,0,12,844.9,1269.6)" />
</g>
<defs>
<path d="M54,0V157L280,388c0,0,70,72,116,130c0,0,46,59,72,112c0,0,25,52,36,105c0,0,10,51,11,110c0,0,0,87,-32,128c0,0,-32,40,-88,40c0,0,-77,-1,-109,-66c0,0,-31,-67,-31,-198c0,0,-44,0,-79,8c0,0,-37,8,-62,26c0,0,-26,18,-40,47c0,0,-15,28,-14,70c0,0,0,41,21,79c0,0,21,36,63,65c0,0,41,28,105,46c0,0,62,16,146,16c0,0,85,0,152,-17c0,0,65,-19,109,-51c0,0,44,-32,67,-79c0,0,22,-47,22,-106c0,0,0,-36,-7,-70c0,0,-8,-33,-26,-69c0,0,-20,-37,-49,-75c0,0,-30,-41,-74,-88c0,0,-44,-49,-102,-107c0,0,-60,-58,-136,-131L198,168H555c4,0,48,1,80,27c0,0,32,27,46,79l13,47h86V0Z" 
id="f0_s"
transform="scale(0.001,-0.001)" />

<path d="M232,-11c0,0,-26,0,-49,7c0,0,-24,4,-40,19c0,0,-17,13,-27,37c0,0,-10,23,-9,58c0,0,-1,34,9,59c0,0,10,22,27,37c0,0,16,14,40,20c0,0,23,5,49,6c0,0,25,-1,48,-6c0,0,23,-6,40,-20c0,0,16,-15,28,-37c0,0,9,-25,9,-59c0,0,0,-35,-9,-58c0,0,-12,-24,-28,-37C320,15,303,0,280,-4c0,0,-23,-7,-48,-7Z" 
id="f0_n"
transform="scale(0.001,-0.001)" />

<path d="M512,95c0,0,78,0,138,33c0,0,59,31,100,93c0,0,39,61,59,148c0,0,21,86,21,196c0,0,-1,218,-80,326c0,0,-82,106,-237,106H426V95ZM43,0V81h64c0,0,16,0,31,4c0,0,14,3,25,13c0,0,9,10,16,30c0,0,5,19,6,53V917c0,0,-1,30,-6,49c0,0,-7,17,-16,28c0,0,-12,9,-26,13c0,0,-15,3,-30,3H43v81H547c0,0,126,-1,227,-33c0,0,100,-34,170,-99c0,0,70,-67,107,-165c0,0,37,-99,37,-229c0,0,0,-125,-35,-229c0,0,-35,-104,-102,-179C951,157,883,82,782,42C782,42,680,0,547,0Z" 
id="f0_1m"
transform="scale(0.001,-0.001)" />

<path d="M31,0V81h4c0,0,25,0,48,4c0,0,21,3,37,16c0,0,16,11,25,33c0,0,7,20,8,57V634c0,0,0,33,-8,55c0,0,-8,20,-22,31c0,0,-15,11,-35,15c0,0,-20,3,-45,3H38v81H347L377,700h8c0,0,14,34,33,60c0,0,17,26,43,43c0,0,24,16,59,26c0,0,34,7,81,8c0,0,90,0,132,-31c0,0,43,-33,43,-93c0,0,-1,-71,-51,-109c0,0,-50,-39,-141,-39c0,0,-1,0,-2,0c0,0,-1,32,-4,56c0,0,-4,23,-12,39c0,0,-9,16,-23,24c0,0,-15,8,-36,8c0,0,-28,0,-47,-13c0,0,-20,-14,-33,-34c0,0,-14,-22,-22,-49c0,0,-9,-27,-13,-54c0,0,-6,-28,-6,-52c0,0,0,-25,0,-42V184c0,0,0,-34,9,-54c0,0,7,-22,22,-32c0,0,13,-10,34,-13c0,0,18,-4,41,-4h49V0Z" 
id="f0_6"
transform="scale(0.001,-0.001)" />

<path d="M392,96c0,0,32,0,60,14c0,0,25,13,46,38c0,0,18,26,29,62c0,0,9,35,9,79V403H468c0,0,-47,-1,-77,-13c0,0,-31,-13,-50,-34c0,0,-19,-22,-27,-53c0,0,-8,-33,-8,-74c0,0,-1,-67,21,-100c0,0,21,-33,65,-33ZM314,-14c-2,0,-3,0,-5,0c0,0,-51,0,-94,14c0,0,-44,15,-76,46c0,0,-33,32,-52,79c0,0,-19,47,-18,111c0,0,-1,125,85,185c0,0,85,61,257,61H536v86c0,0,0,38,-3,71c0,0,-3,32,-12,57c0,0,-11,23,-29,37c0,0,-19,11,-50,12c0,0,-30,0,-49,-12c0,0,-20,-13,-32,-34c0,0,-13,-22,-16,-52c0,0,-6,-31,-6,-67h-1c-11,0,-105,1,-153,24c0,0,-53,23,-52,79c0,0,-1,41,25,71c0,0,24,29,68,49c0,0,43,18,100,27c0,0,57,8,122,8c0,0,80,0,141,-13c0,0,59,-15,100,-45c0,0,38,-30,59,-80c0,0,20,-50,20,-121V189c0,0,0,-31,6,-52c0,0,4,-21,15,-33c0,0,9,-12,28,-17c0,0,15,-6,39,-6c1,0,3,0,4,0h6V0H582L550,105H536c0,0,-26,-30,-47,-53c0,0,-23,-24,-48,-38C441,14,415,0,384,-6c0,0,-30,-8,-70,-8Z" 
id="f0_3"
transform="scale(0.001,-0.001)" />

<path d="M304,0L108,657c0,0,-8,23,-18,40c0,0,-10,15,-22,24c0,0,-13,9,-29,13c0,0,-17,3,-39,4H-3v81H443V738H423c0,0,-46,-1,-69,-13c0,0,-24,-13,-23,-51c0,0,0,-13,5,-31c0,0,3,-19,8,-35L401,410c0,0,7,-29,14,-57c0,0,6,-29,12,-57c0,0,6,-28,12,-52c0,0,3,-25,7,-44h5c0,0,6,37,18,79c0,0,11,40,31,97L656,811h99L904,360c0,0,19,-55,27,-93c0,0,7,-39,13,-67h5c0,0,3,19,7,36c0,0,3,17,9,36c0,0,4,19,10,41c0,0,5,21,15,50l67,223c0,0,5,19,11,42c0,0,2,22,3,35c0,0,0,39,-24,57c0,0,-26,18,-77,18H959v81h350V738h-19c0,0,-23,0,-39,-5c0,0,-17,-5,-29,-17c0,0,-13,-13,-24,-36c0,0,-11,-25,-23,-62L978,0H813L646,507L471,0Z" 
id="f0_c"
transform="scale(0.001,-0.001)" />

<path d="M371,-14c0,0,-52,0,-93,13c0,0,-42,11,-71,40c0,0,-29,27,-44,74c0,0,-16,46,-16,113V715H32v78c0,0,49,0,88,19c0,0,38,19,62,45c0,0,46,49,70,152H379V819H574V715H379V242c0,0,0,-70,24,-102c0,0,22,-32,75,-32c0,0,1,0,2,0c0,0,29,0,57,5c0,0,27,3,51,9V23c0,0,-13,-6,-32,-13C556,10,534,4,508,0c0,0,-28,-7,-62,-10c0,0,-35,-4,-75,-4Z" 
id="f0_4"
transform="scale(0.001,-0.001)" />

<path d="M31,0V81h3c0,0,25,0,47,4c0,0,21,3,38,14c0,0,16,11,25,32c0,0,9,20,9,55V987c0,0,-1,30,-11,49c0,0,-11,18,-27,29c0,0,-17,8,-35,12c0,0,-20,3,-36,3H26v81H383V909c0,0,0,-30,0,-64c0,0,0,-35,-3,-63c0,0,-4,-35,-7,-67h13c0,0,24,43,50,68c0,0,25,24,54,37c0,0,29,12,62,16c0,0,32,2,68,2c0,0,59,0,106,-17c0,0,47,-17,80,-53c0,0,32,-36,49,-91c0,0,16,-56,17,-133V189c0,0,0,-35,7,-56c0,0,5,-22,18,-33c0,0,12,-12,33,-15c0,0,18,-4,45,-4h4V0H640V503c0,0,-1,48,-6,88c0,0,-7,38,-21,64c0,0,-15,25,-38,40c0,0,-24,14,-57,14c0,0,-38,-1,-64,-20c0,0,-26,-19,-40,-51c0,0,-16,-33,-22,-76c0,0,-7,-44,-7,-90V181c0,0,0,-33,8,-52c0,0,7,-20,22,-30c0,0,13,-11,35,-14c0,0,19,-4,45,-4h5V0Z" 
id="f0_t"
transform="scale(0.001,-0.001)" />

<path d="M574,490c0,0,0,58,-6,105c0,0,-8,45,-22,78c0,0,-15,32,-37,49c0,0,-24,17,-56,17c0,0,-65,0,-103,-63c0,0,-38,-64,-38,-186ZM468,-14c0,0,-98,0,-171,27c0,0,-75,28,-125,82c0,0,-50,54,-75,133c0,0,-26,76,-25,177c0,0,-1,107,25,189c0,0,25,80,74,136c0,0,48,53,119,82c0,0,70,26,161,26c0,0,82,0,149,-23c0,0,65,-24,112,-70c0,0,46,-47,71,-115c0,0,25,-69,25,-159V392H308c0,0,0,-77,15,-132c0,0,14,-55,40,-91c0,0,26,-36,63,-53c0,0,37,-17,85,-17c0,0,1,0,2,0c8,0,41,1,71,10c0,0,34,9,61,26c0,0,28,16,48,40c0,0,21,22,34,48c0,0,41,-22,41,-75c0,0,0,-32,-18,-61c0,0,-18,-31,-55,-53C695,34,658,12,602,0c0,0,-57,-14,-134,-14Z" 
id="f0_5"
transform="scale(0.001,-0.001)" />

<path d="M469,81c0,0,43,0,75,22c0,0,30,21,49,63c0,0,19,41,27,103c0,0,7,61,8,144c0,0,-1,81,-8,144c0,0,-9,60,-28,102c0,0,-20,40,-50,62c0,0,-31,20,-74,20c0,0,-45,0,-75,-20c0,0,-30,-22,-49,-62c0,0,-19,-42,-27,-102c0,0,-8,-63,-8,-144c0,0,0,-83,9,-144c0,0,7,-62,27,-103c0,0,19,-42,50,-63c0,0,29,-22,74,-22Zm-1,-95c0,0,-1,0,-2,0c0,0,-92,0,-165,26c0,0,-73,25,-123,79c0,0,-52,52,-79,134c0,0,-28,80,-27,188c0,0,-1,215,101,320c0,0,101,105,298,105c0,0,91,0,165,-26c0,0,72,-26,123,-79c0,0,50,-53,79,-132c0,0,27,-81,27,-188c0,0,0,-217,-101,-322C764,91,662,-14,468,-14Z" 
id="f0_b"
transform="scale(0.001,-0.001)" />

<path d="M540,99c1,0,2,0,2,0c3,0,76,1,109,82c0,0,34,81,34,233c0,0,0,155,-34,234c0,0,-33,76,-110,76c0,0,-46,0,-76,-18c0,0,-30,-20,-47,-58c0,0,-18,-40,-26,-97c0,0,-8,-60,-7,-138c0,0,-1,-76,7,-134c0,0,8,-60,26,-98c0,0,18,-41,48,-61c0,0,29,-21,74,-21ZM610,-14c-1,0,-2,0,-4,0h-1c-9,0,-47,1,-78,10c0,0,-37,8,-64,26c0,0,-30,18,-51,43c0,0,-23,24,-39,54H359L316,0H26V81H37c0,0,20,0,42,4c0,0,20,3,37,15c0,0,17,10,27,32c0,0,10,21,10,56V978c0,0,0,32,-10,53c0,0,-10,19,-26,31c0,0,-17,11,-38,14c0,0,-22,3,-47,4H26v81H383V900c0,0,0,-24,0,-56c0,0,0,-33,-3,-61c0,0,-4,-34,-7,-68h10c0,0,33,56,88,89c0,0,55,32,141,33c0,0,75,0,132,-25c0,0,57,-26,97,-76c0,0,39,-53,59,-132c0,0,20,-81,20,-191c0,0,0,-112,-20,-192c0,0,-22,-81,-61,-133c0,0,-39,-53,-97,-78c0,0,-59,-24,-132,-24Z" 
id="f0_18"
transform="scale(0.001,-0.001)" />

<path d="M26,0V81H44c0,0,16,0,37,4c0,0,17,3,35,13c0,0,15,10,26,30c0,0,10,19,11,53V645c0,0,-1,29,-11,49c0,0,-11,18,-27,28c0,0,-17,9,-35,13c0,0,-20,3,-36,3H26v81H385V181c0,0,0,-34,11,-53c0,0,10,-20,27,-30c0,0,16,-10,35,-13c0,0,19,-4,36,-4h18V0ZM261,956c0,0,-28,0,-51,7c0,0,-24,7,-41,20c0,0,-18,13,-27,35c0,0,-11,20,-11,49c0,0,0,28,11,50c0,0,9,21,27,34c0,0,17,12,41,19c0,0,23,6,51,6c0,0,25,0,50,-6c0,0,23,-7,42,-19c0,0,18,-13,29,-34c0,0,10,-22,10,-50c0,0,0,-29,-10,-49c0,0,-11,-22,-29,-35c0,0,-19,-13,-42,-20c0,0,-25,-7,-50,-7Z" 
id="f0_7"
transform="scale(0.001,-0.001)" />

<path d="M26,0V81H44c0,0,16,0,37,4c0,0,17,3,35,13c0,0,15,10,26,30c0,0,10,19,11,53V987c0,0,-1,30,-11,49c0,0,-11,18,-27,29c0,0,-17,8,-35,12c0,0,-20,3,-36,3H26v81H385V181c0,0,0,-34,11,-53c0,0,10,-20,27,-30c0,0,16,-10,35,-13c0,0,19,-4,36,-4h18V0Z" 
id="f0_8"
transform="scale(0.001,-0.001)" />

<path d="M448,99c0,0,45,0,76,20c0,0,29,18,48,57c0,0,17,38,26,98c0,0,7,57,7,137c0,0,0,75,-7,134c0,0,-9,59,-26,99c0,0,-19,39,-48,60c0,0,-31,20,-76,20c0,0,-38,0,-65,-20c0,0,-29,-21,-44,-61c0,0,-17,-40,-25,-98c0,0,-8,-60,-8,-135c0,0,0,-156,33,-233c0,0,31,-78,109,-78ZM386,-14c-1,0,-3,0,-4,0h-1c-7,0,-77,1,-132,24c0,0,-59,24,-98,77c0,0,-40,52,-60,132c0,0,-22,79,-21,189c0,0,-1,110,21,192c0,0,20,80,60,133c0,0,38,53,97,79c0,0,56,25,131,25c0,0,43,0,78,-9c0,0,35,-10,63,-25c0,0,28,-17,49,-39c0,0,21,-22,37,-49h9c0,0,0,42,-6,79c0,0,0,15,0,33c0,0,0,16,-2,31c0,0,-2,14,-2,25c0,0,0,11,0,18v84c0,0,0,32,-10,51c0,0,-10,18,-27,29c0,0,-17,8,-39,12c0,0,-22,3,-48,3H469v81H837V188c0,0,0,-35,10,-56c0,0,10,-22,29,-32c0,0,16,-12,40,-15c0,0,22,-4,48,-4h6V0H674L631,119H617c0,0,-18,-31,-39,-56c0,0,-23,-25,-51,-41C527,22,498,4,463,-4c0,0,-34,-10,-77,-10Z" 
id="f0_a"
transform="scale(0.001,-0.001)" />

<path d="M364,-274c9,0,135,0,195,39c0,0,61,38,61,114c0,0,-1,47,-31,68c0,0,-31,18,-92,19H319c0,0,-24,-1,-47,-4c0,0,-24,-5,-43,-17c0,0,-21,-13,-33,-35c0,0,-12,-24,-12,-60c0,0,0,-65,46,-94c0,0,45,-30,133,-30h1Zm28,653c0,0,30,0,51,13c0,0,20,12,32,35c0,0,11,24,17,57c0,0,5,32,5,74c0,0,0,43,-5,78c0,0,-6,34,-18,59c0,0,-12,23,-32,38c0,0,-21,14,-51,14c0,0,-31,0,-50,-14c0,0,-20,-15,-32,-40c0,0,-13,-26,-18,-60c0,0,-6,-36,-5,-77c0,0,0,-41,6,-73c0,0,5,-32,18,-56c0,0,12,-23,32,-35c0,0,20,-13,50,-13ZM366,-366c-2,0,-4,0,-6,0c-9,0,-183,1,-268,54c0,0,-89,54,-89,159c0,0,0,81,53,126c0,0,52,42,154,50c0,0,-22,8,-41,20c0,0,-21,12,-36,29c0,0,-16,17,-26,38c0,0,-10,21,-9,49c0,0,0,25,10,47c0,0,10,21,28,42c0,0,17,18,43,37c0,0,24,16,54,34c0,0,-34,12,-61,34c0,0,-30,20,-50,51c0,0,-21,29,-32,67c0,0,-13,39,-12,85c0,0,0,133,78,209c0,0,77,73,241,73c0,0,54,0,101,-13c0,0,46,-15,81,-34c0,0,12,14,28,30c0,0,14,14,35,27c0,0,18,12,43,21c0,0,23,8,53,8c0,0,27,0,48,-6c0,0,20,-9,35,-20c0,0,12,-13,20,-27c0,0,7,-16,7,-34c0,0,0,-17,-5,-33c0,0,-6,-17,-17,-28c0,0,-13,-13,-34,-19c0,0,-20,-7,-49,-7c-1,0,-2,0,-4,0c0,0,0,15,-4,27c0,0,-6,12,-14,20c0,0,-9,8,-18,13c0,0,-11,3,-22,4c0,0,-13,0,-27,-5c0,0,-15,-6,-23,-12c0,0,16,-17,29,-38c0,0,14,-23,24,-48c0,0,10,-25,16,-52c0,0,5,-27,6,-56c0,0,0,-58,-18,-106c0,0,-20,-49,-57,-84c0,0,-38,-36,-96,-56c0,0,-59,-21,-138,-21H351c0,0,-13,0,-24,2c0,0,-13,1,-18,2c0,0,-11,-6,-20,-13c0,0,-10,-8,-17,-17c0,0,-9,-11,-13,-22c0,0,-6,-13,-5,-25c0,0,0,-27,20,-38c0,0,17,-12,48,-12c1,0,2,0,3,0H510c0,0,76,0,132,-15c0,0,54,-17,91,-47c0,0,36,-30,53,-73c0,0,17,-43,17,-97c0,0,0,-72,-26,-126c0,0,-27,-56,-82,-94c0,0,-55,-40,-138,-59c0,0,-81,-21,-191,-21Z" 
id="f0_l"
transform="scale(0.001,-0.001)" />

<path d="M31,0V81h3c0,0,25,0,47,4c0,0,21,3,38,14c0,0,16,11,25,32c0,0,9,20,9,55V643c0,0,0,32,-8,52c0,0,-8,18,-22,30c0,0,-15,10,-35,14c0,0,-20,3,-45,3H38v77H359L379,710h7c0,0,24,43,50,69c0,0,25,25,54,39c0,0,29,13,62,17c0,0,32,3,68,3c0,0,83,0,144,-29c0,0,59,-31,87,-99h14c0,0,22,43,50,69c0,0,27,25,59,39c0,0,29,13,64,17c0,0,34,3,70,3c0,0,59,0,106,-17c0,0,47,-17,80,-53c0,0,32,-36,49,-91c0,0,16,-56,17,-133V189c0,0,0,-35,7,-56c0,0,5,-22,18,-33c0,0,12,-12,32,-15c0,0,19,-4,45,-4h5V0H1127V503c0,0,0,98,-27,152c0,0,-28,54,-94,54c0,0,-36,-1,-62,-17c0,0,-26,-18,-41,-48c0,0,-17,-31,-23,-70c0,0,-9,-41,-8,-84V189c0,0,0,-35,7,-56c0,0,5,-22,18,-33c0,0,12,-12,33,-15c0,0,18,-4,45,-4h4V0H640V503c0,0,-1,48,-6,88c0,0,-7,38,-21,64c0,0,-15,25,-38,40c0,0,-24,14,-57,14c0,0,-38,-1,-64,-20c0,0,-26,-19,-40,-51c0,0,-16,-33,-22,-76c0,0,-7,-44,-7,-90V181c0,0,0,-33,8,-52c0,0,7,-20,22,-30c0,0,13,-11,35,-14c0,0,19,-4,45,-4h5V0Z" 
id="f0_f"
transform="scale(0.001,-0.001)" />

<path d="M357,-14c-1,0,-3,0,-4,0c0,0,-83,0,-141,14c0,0,-60,12,-96,36c0,0,-37,23,-53,57c0,0,-17,32,-17,70c0,0,0,37,14,61c0,0,15,22,37,35c0,0,21,12,46,17c0,0,25,3,45,4c0,0,-1,-49,12,-86c0,0,12,-39,33,-64c0,0,21,-27,53,-41c0,0,28,-14,64,-14c1,0,2,0,3,0c0,0,39,0,68,8c0,0,28,7,47,23c0,0,18,14,27,34c0,0,9,17,9,39c0,0,0,25,-9,46c0,0,-10,18,-31,37c0,0,-22,16,-57,34c0,0,-38,16,-91,35c0,0,-62,21,-109,46c0,0,-48,24,-79,56c0,0,-33,30,-50,71c0,0,-17,38,-17,91c0,0,0,60,24,106c0,0,22,46,66,76c0,0,44,30,104,45c0,0,61,14,134,15c0,0,73,0,123,-12c0,0,50,-13,83,-33c0,0,32,-20,47,-45c0,0,14,-26,15,-52c0,0,0,-51,-36,-78c0,0,-37,-27,-120,-27c0,0,0,76,-33,119c0,0,-35,41,-101,41c0,0,-25,0,-47,-6c0,0,-24,-5,-40,-17c0,0,-17,-13,-26,-30c0,0,-11,-18,-11,-41c0,0,-1,-26,10,-44c0,0,9,-20,33,-37c0,0,23,-18,63,-36c0,0,40,-18,103,-39c0,0,50,-18,94,-40c0,0,43,-24,74,-53c0,0,30,-30,48,-67c0,0,16,-39,17,-86c0,0,-1,-65,-22,-114c0,0,-22,-50,-65,-84C598,56,555,21,494,4c0,0,-60,-18,-137,-18Z" 
id="f0_r"
transform="scale(0.001,-0.001)" />

<path d="M31,0V81h3c0,0,25,0,47,4c0,0,21,3,38,14c0,0,16,11,25,32c0,0,9,20,9,55V639c0,0,0,32,-8,51c0,0,-8,19,-22,31c0,0,-15,9,-35,14c0,0,-20,3,-45,3H38v81H359L379,710h7c0,0,24,43,50,69c0,0,25,25,54,39c0,0,29,13,62,17c0,0,32,3,68,3c0,0,59,0,106,-17c0,0,47,-17,80,-53c0,0,32,-36,49,-91c0,0,16,-56,17,-133V189c0,0,0,-35,7,-56c0,0,5,-22,18,-33c0,0,12,-12,33,-15c0,0,18,-4,45,-4h4V0H640V503c0,0,-1,48,-6,88c0,0,-7,38,-21,64c0,0,-15,25,-38,40c0,0,-24,14,-57,14c0,0,-38,-1,-64,-20c0,0,-26,-19,-40,-51c0,0,-16,-33,-22,-76c0,0,-7,-44,-7,-90V181c0,0,0,-33,8,-52c0,0,7,-20,22,-30c0,0,13,-11,35,-14c0,0,19,-4,45,-4h5V0Z" 
id="f0_d"
transform="scale(0.001,-0.001)" />

<path d="M744,-14c0,0,-88,0,-135,41c0,0,-47,41,-47,115c0,0,0,32,6,78c0,0,6,46,18,104l26,121c0,0,3,14,9,36c0,0,5,21,9,46c0,0,3,23,7,47c0,0,3,22,3,41c0,0,0,15,-2,30c0,0,-4,16,-10,29c0,0,-7,12,-19,21c0,0,-13,7,-33,8c0,0,-26,-1,-52,-17c0,0,-26,-19,-50,-47c0,0,-23,-29,-44,-65c0,0,-23,-38,-39,-76c0,0,-19,-40,-31,-77c0,0,-12,-37,-19,-67L261,0H32L233,950c0,0,3,10,5,21c0,0,2,9,4,20c0,0,0,9,2,15c0,0,1,6,1,10c0,0,0,21,-5,34c0,0,-4,12,-14,19c0,0,-10,7,-25,9c0,0,-17,2,-38,2H131l14,81H515L443,825c0,0,-6,-24,-13,-52c0,0,-8,-30,-14,-55c0,0,-8,-31,-15,-62h9c0,0,29,45,60,79c0,0,30,33,66,56c0,0,36,21,79,33c0,0,41,9,92,10c0,0,48,0,82,-14c0,0,33,-15,55,-38c0,0,20,-25,29,-56c0,0,9,-33,9,-67c0,0,0,-20,-3,-41c0,0,-4,-23,-7,-45c0,0,-4,-22,-9,-45c0,0,-6,-22,-9,-42L819,322c0,0,-10,-42,-16,-77c0,0,-6,-38,-6,-69c0,0,0,-34,15,-51c0,0,13,-18,39,-18c0,0,23,0,44,9c0,0,19,9,46,26L978,90c0,0,-19,-19,-42,-38c0,0,-24,-20,-51,-34C885,18,855,3,821,-5c0,0,-36,-9,-77,-9Z" 
id="f1_2"
transform="scale(0.001,-0.001)" />

<path d="M-100,-366c-10,0,-47,1,-82,7c0,0,-42,8,-74,21l24,85c0,0,17,-6,50,-12c0,0,30,-8,73,-8c2,0,4,0,6,0c0,0,1,0,1,0c9,0,74,1,127,19c0,0,57,18,108,51c0,0,49,31,93,73c0,0,43,43,84,91L119,657c0,0,-13,46,-36,64c0,0,-25,16,-70,17H0l17,81H316L417,423c0,0,7,-31,16,-69c0,0,7,-41,15,-80c0,0,7,-41,13,-75c0,0,5,-35,7,-54h4c0,0,46,62,86,124c0,0,40,61,71,120c0,0,30,59,48,112c0,0,16,52,17,97c0,0,0,51,-25,78c0,0,-26,27,-70,27c0,0,-1,30,10,54c0,0,8,23,25,41c0,0,16,17,39,27c0,0,22,9,48,9c0,0,62,0,94,-34c0,0,32,-35,32,-96c0,0,0,-60,-20,-126c0,0,-21,-66,-58,-141c0,0,-38,-75,-90,-158c0,0,-54,-84,-121,-177c0,0,-56,-77,-104,-141c0,0,-49,-65,-94,-117c0,0,-47,-53,-95,-91c0,0,-49,-41,-102,-66c0,0,-56,-28,-118,-40c0,0,-63,-13,-142,-13c0,0,-1,0,-3,0Z" 
id="f1_3"
transform="scale(0.001,-0.001)" />

<path d="M401,83c0,0,41,0,76,22c0,0,35,23,65,60c0,0,27,36,50,86c0,0,23,47,38,99c0,0,14,51,23,103c0,0,7,50,7,94c0,0,-1,30,-4,61c0,0,-4,28,-13,52c0,0,-10,23,-25,37c0,0,-17,15,-41,15c0,0,-26,0,-50,-15c0,0,-26,-14,-48,-39c0,0,-24,-25,-44,-57c0,0,-22,-33,-37,-66c0,0,-18,-36,-29,-70c0,0,-14,-36,-19,-66L292,125c0,0,6,-6,18,-14c0,0,10,-9,25,-14c0,0,14,-7,31,-10c0,0,17,-4,35,-4ZM-44,-366L162,608c0,0,2,10,4,20c0,0,1,10,3,20c0,0,1,9,3,16c0,0,0,6,0,10c0,0,0,21,-4,33c0,0,-5,12,-14,20c0,0,-11,6,-25,9c0,0,-16,2,-37,2H64l14,81H407L367,615h10c0,0,26,48,54,88c0,0,28,41,61,70c0,0,34,28,76,45c0,0,42,16,100,16c0,0,50,0,91,-18c0,0,41,-19,71,-53c0,0,28,-35,45,-86c0,0,16,-52,16,-119c0,0,-1,-55,-13,-119c0,0,-14,-64,-40,-127c0,0,-26,-64,-64,-123c0,0,-41,-60,-93,-104C681,85,628,39,562,13c0,0,-64,-27,-142,-27c-1,0,-2,0,-3,0c0,0,-1,0,-2,0c-9,0,-50,1,-84,10c0,0,-40,7,-70,24c0,0,-1,-13,-3,-23c0,0,-1,-12,-4,-24c0,0,-2,-14,-5,-26L228,-155c0,0,-3,-10,-4,-20c0,0,-3,-10,-4,-19c0,0,-1,-11,-2,-17c0,0,-2,-7,-1,-10c0,0,0,-21,5,-33c0,0,3,-13,14,-20c0,0,9,-6,25,-8c0,0,14,-3,37,-3h58l-14,-81Z" 
id="f1_4"
transform="scale(0.001,-0.001)" />

<path d="M322,431c0,0,57,0,106,15c0,0,48,14,85,43c0,0,35,27,57,67c0,0,20,39,20,87c0,0,-1,47,-19,73c0,0,-20,26,-56,26c0,0,-38,0,-71,-27c0,0,-34,-29,-61,-73c0,0,-27,-46,-46,-100c0,0,-19,-56,-28,-111ZM402,-14c0,0,-71,0,-132,18c0,0,-63,19,-108,59c0,0,-47,39,-74,99c0,0,-27,59,-27,139c0,0,0,56,15,118c0,0,14,61,45,122c0,0,29,59,73,112c0,0,43,53,101,94c0,0,56,40,129,64c0,0,70,23,155,23c0,0,110,0,170,-47c0,0,60,-48,60,-133c0,0,0,-62,-34,-118c0,0,-35,-58,-95,-100c0,0,-60,-44,-144,-68c0,0,-82,-26,-178,-26c-1,0,-2,0,-4,0H327c0,0,-15,0,-29,2c0,0,-3,-16,-3,-30c0,0,-1,-16,0,-28c0,0,0,-89,41,-137c0,0,41,-48,125,-48c0,0,37,0,71,11c0,0,33,10,63,28c0,0,27,17,51,40c0,0,22,21,39,45c0,0,8,-12,14,-29c0,0,5,-18,5,-37c0,0,0,-28,-18,-58c0,0,-18,-31,-54,-56C632,45,595,19,538,2c0,0,-58,-16,-136,-16Z" 
id="f1_5"
transform="scale(0.001,-0.001)" />

<path d="M57,0L186,614c0,0,3,12,6,34c0,0,3,20,3,37c0,0,0,27,-18,41c0,0,-20,12,-62,12H87l14,81H439L407,609h7c0,0,25,55,53,97c0,0,25,41,58,71c0,0,32,27,72,43c0,0,40,14,94,14c0,0,81,-1,121,-31c0,0,38,-30,39,-88c0,0,-1,-80,-46,-118c0,0,-45,-39,-132,-39c-1,0,-2,0,-2,0c0,0,0,34,-3,63c0,0,-5,27,-12,47c0,0,-9,19,-23,30c0,0,-16,10,-37,11c0,0,-22,-1,-45,-17c0,0,-25,-19,-48,-49c0,0,-24,-31,-46,-72c0,0,-24,-43,-44,-92c0,0,-22,-51,-39,-105c0,0,-17,-55,-29,-110L287,0Z" 
id="f1_6"
transform="scale(0.001,-0.001)" />

<path d="M404,-14c-2,0,-3,0,-5,0c0,0,-69,0,-130,18c0,0,-62,19,-108,59c0,0,-46,39,-73,99c0,0,-27,59,-27,139c0,0,-1,56,14,118c0,0,15,61,43,121c0,0,27,59,71,113c0,0,41,52,97,93c0,0,56,40,126,64c0,0,69,23,152,24c0,0,63,-1,110,-13c0,0,44,-14,75,-35c0,0,28,-22,43,-51c0,0,14,-31,14,-63c0,0,0,-24,-9,-46c0,0,-11,-24,-33,-41c0,0,-23,-20,-58,-30c0,0,-36,-11,-86,-11c0,0,0,39,-7,77c0,0,-8,35,-21,63c0,0,-15,27,-35,43c0,0,-21,15,-48,15c0,0,-34,0,-61,-21c0,0,-30,-23,-53,-59c0,0,-24,-37,-42,-82c0,0,-20,-47,-31,-97c0,0,-14,-50,-21,-97c0,0,-6,-50,-6,-88c0,0,0,-94,42,-145c0,0,41,-52,124,-52c1,0,2,0,2,0c0,0,41,0,73,11c0,0,32,10,59,28c0,0,25,18,46,41c0,0,20,21,36,45c0,0,9,-10,16,-26c0,0,7,-18,7,-41c0,0,-1,-31,-17,-61c0,0,-18,-31,-55,-55C628,43,591,16,534,1c0,0,-55,-15,-130,-15Z" 
id="f1_7"
transform="scale(0.001,-0.001)" />

<path d="M413,95c0,0,41,0,74,24c0,0,32,22,60,62c0,0,25,38,45,87c0,0,19,48,32,101c0,0,12,52,19,103c0,0,5,50,6,90c0,0,-1,91,-31,130c0,0,-31,39,-85,40c0,0,-39,0,-71,-23c0,0,-34,-23,-59,-59c0,0,-27,-38,-47,-85c0,0,-20,-49,-34,-100c0,0,-15,-52,-21,-102c0,0,-6,-52,-6,-94c0,0,0,-94,31,-134c0,0,31,-40,87,-40ZM385,-14c0,0,-72,0,-131,19c0,0,-60,19,-103,60c0,0,-43,39,-66,100c0,0,-24,60,-24,141c0,0,0,57,14,118c0,0,12,61,41,121c0,0,26,59,68,111c0,0,41,53,96,92c0,0,55,39,127,63c0,0,69,23,155,23c0,0,66,0,124,-18c0,0,58,-19,102,-57c0,0,42,-40,68,-100c0,0,26,-61,26,-146c0,0,-1,-55,-13,-115c0,0,-13,-61,-39,-119c0,0,-27,-60,-67,-112c0,0,-42,-54,-96,-94C667,73,612,32,542,9c0,0,-71,-23,-157,-23Z" 
id="f1_8"
transform="scale(0.001,-0.001)" />

<path d="M768,-14c0,0,-88,0,-135,41c0,0,-47,41,-47,115c0,0,0,65,25,182l25,121c0,0,3,14,7,36c0,0,5,21,9,46c0,0,4,23,8,47c0,0,3,22,3,41c0,0,0,15,-2,30c0,0,-4,16,-10,29c0,0,-8,12,-19,21c0,0,-13,7,-33,8c0,0,-26,-1,-51,-17c0,0,-27,-19,-50,-47c0,0,-25,-29,-46,-65c0,0,-22,-38,-39,-76c0,0,-18,-40,-30,-77c0,0,-13,-37,-20,-67L286,0H57L185,608c0,0,2,10,4,20c0,0,1,10,3,20c0,0,1,9,3,16c0,0,0,6,0,10c0,0,0,21,-4,33c0,0,-5,12,-14,20c0,0,-11,6,-25,9c0,0,-16,2,-37,2H87l14,81H440L423,656h10c0,0,29,45,60,79c0,0,30,33,66,56c0,0,36,21,79,33c0,0,41,9,92,10c0,0,48,0,82,-14c0,0,32,-15,54,-38c0,0,20,-25,29,-56c0,0,9,-33,9,-67c0,0,0,-20,-2,-41c0,0,-4,-23,-7,-45c0,0,-4,-22,-9,-45c0,0,-6,-22,-9,-42L843,322c0,0,-10,-42,-15,-77c0,0,-6,-38,-6,-69c0,0,-1,-34,14,-51c0,0,14,-18,40,-18c0,0,23,0,44,9c0,0,18,9,45,26l37,-52c0,0,-18,-19,-41,-38c0,0,-24,-20,-52,-34C909,18,880,3,845,-5c0,0,-36,-9,-77,-9Z" 
id="f1_9"
transform="scale(0.001,-0.001)" />

<path d="M-67,-366c-14,0,-51,0,-78,5c0,0,-36,5,-68,14l19,79c0,0,10,-4,32,-7c0,0,19,-4,36,-4c0,0,36,0,63,14c0,0,25,12,47,44c0,0,20,31,37,83c0,0,16,51,33,127L185,608c0,0,2,10,4,20c0,0,1,10,3,20c0,0,1,9,3,16c0,0,0,6,0,10c0,0,0,21,-4,33c0,0,-5,12,-14,20c0,0,-11,6,-25,9c0,0,-16,2,-37,2H87l14,81H463L286,-11c0,0,-22,-102,-56,-170c0,0,-35,-69,-81,-110c0,0,-46,-41,-100,-58c0,0,-52,-17,-111,-17c0,0,-2,0,-5,0ZM361,956c-1,0,-2,0,-4,0c0,0,-26,0,-47,6c0,0,-21,5,-37,17c0,0,-17,12,-25,30c0,0,-11,18,-10,42c0,0,-1,34,12,58c0,0,11,23,30,38c0,0,19,14,46,23c0,0,25,6,54,6c0,0,25,0,47,-5c0,0,21,-6,39,-17c0,0,17,-13,27,-30c0,0,10,-19,10,-44c0,0,0,-31,-12,-54c0,0,-13,-25,-33,-39c0,0,-22,-16,-47,-23c0,0,-24,-8,-50,-8Z" 
id="f1_a"
transform="scale(0.001,-0.001)" />

<path d="M768,-14c-8,0,-52,1,-82,12c0,0,-36,10,-56,30c0,0,-21,19,-29,47c0,0,-9,25,-9,56c0,0,-1,7,0,16c0,0,1,8,3,19c0,0,0,9,2,18c0,0,1,8,2,14H586c0,0,-33,-48,-65,-86c0,0,-33,-40,-70,-66C451,46,414,16,372,2c0,0,-42,-14,-97,-14h-1c-8,0,-51,0,-82,13c0,0,-33,12,-53,36c0,0,-20,23,-29,55c0,0,-9,30,-9,64c0,0,0,37,9,83c0,0,9,45,17,85l55,269c0,0,5,31,10,57c0,0,3,25,3,38c0,0,0,30,-18,40c0,0,-20,10,-62,10H87l14,81H468L367,362c0,0,-4,-18,-9,-40c0,0,-5,-23,-8,-45c0,0,-4,-23,-6,-43c0,0,-4,-20,-3,-34c0,0,-1,-34,14,-53c0,0,14,-20,52,-20c0,0,33,0,69,30c0,0,34,30,68,79c0,0,31,47,57,107c0,0,26,59,39,117l81,359H949L845,322c0,0,-10,-42,-15,-77c0,0,-6,-38,-6,-69c0,0,-1,-34,14,-51c0,0,13,-18,39,-18c0,0,23,0,44,9c0,0,19,9,46,26l37,-52c0,0,-19,-19,-42,-38c0,0,-24,-20,-51,-34C911,18,881,3,847,-5c0,0,-36,-9,-77,-9c0,0,-1,0,-2,0Z" 
id="f1_b"
transform="scale(0.001,-0.001)" />

<path d="M285,-274c11,0,70,0,113,12c0,0,48,12,79,32c0,0,30,20,46,47c0,0,14,25,15,54c0,0,-1,43,-33,67c0,0,-34,23,-113,29L257,-21c0,0,-34,-5,-63,-17c0,0,-31,-12,-52,-31c0,0,-23,-19,-35,-42c0,0,-14,-25,-14,-50c0,0,0,-24,9,-44c0,0,8,-22,30,-36c0,0,21,-15,58,-24c0,0,37,-9,93,-9h2ZM411,382c0,0,27,0,49,13c0,0,23,12,41,33c0,0,17,21,31,48c0,0,13,25,22,54c0,0,8,28,13,56c0,0,4,27,4,50c0,0,0,53,-20,79c0,0,-22,24,-62,24c0,0,-40,0,-70,-26c0,0,-30,-26,-50,-65c0,0,-21,-39,-30,-82c0,0,-11,-45,-11,-79c0,0,0,-56,22,-80c0,0,21,-25,61,-25ZM257,-366c-14,0,-97,1,-156,14c0,0,-67,13,-107,39c0,0,-43,25,-62,62c0,0,-20,36,-20,80c0,0,0,40,21,73c0,0,20,32,55,57c0,0,33,23,77,41c0,0,43,15,91,23c0,0,-15,8,-29,21c0,0,-15,12,-25,30c0,0,-11,16,-18,36c0,0,-6,18,-6,38c0,0,-1,24,9,45c0,0,10,21,30,41c0,0,20,20,52,41c0,0,30,20,74,44c0,0,-51,23,-79,71c0,0,-28,46,-28,113c0,0,0,52,24,112c0,0,22,58,71,107c0,0,47,48,118,81c0,0,71,31,169,31c0,0,50,0,95,-11c0,0,43,-13,78,-37c0,0,16,20,36,41c0,0,19,17,41,32c0,0,21,14,47,22c0,0,24,7,53,8c0,0,47,0,68,-22c0,0,21,-24,22,-59c0,0,0,-19,-5,-38c0,0,-6,-20,-16,-35c0,0,-11,-16,-30,-26c0,0,-18,-9,-44,-9c-1,0,-2,0,-3,0c0,0,0,31,-13,48c0,0,-15,17,-41,17c0,0,-21,0,-38,-7c0,0,-18,-8,-32,-20c0,0,17,-23,28,-55c0,0,10,-33,10,-68c0,0,0,-33,-9,-70c0,0,-11,-37,-29,-73c0,0,-20,-36,-50,-69c0,0,-30,-33,-71,-58c0,0,-41,-26,-93,-41c0,0,-53,-15,-115,-15H367c0,0,-3,0,-7,0c-4,0,-10,0,-15,1c0,0,-10,1,-17,3c0,0,-36,-15,-59,-36c0,0,-24,-21,-24,-44c0,0,0,-14,6,-21c0,0,6,-8,18,-13c0,0,9,-6,25,-8c0,0,14,-4,33,-5L498,150c0,0,112,-10,175,-60c0,0,61,-51,62,-147c0,0,0,-70,-32,-126c0,0,-32,-58,-92,-98c0,0,-62,-40,-149,-63c0,0,-90,-22,-202,-22c0,0,-1,0,-3,0Z" 
id="f1_c"
transform="scale(0.001,-0.001)" />

<path d="M376,107c0,0,34,0,69,29c0,0,36,28,67,77c0,0,31,47,57,106c0,0,25,59,37,121l54,254c0,0,-15,21,-41,32c0,0,-27,10,-57,10c0,0,-44,0,-81,-23c0,0,-37,-24,-67,-62c0,0,-31,-39,-52,-88c0,0,-24,-50,-38,-102c0,0,-16,-53,-23,-104c0,0,-9,-52,-8,-94c0,0,0,-44,7,-74c0,0,5,-31,17,-48c0,0,10,-19,26,-26c0,0,14,-8,33,-8ZM280,-14c0,0,-55,0,-96,21c0,0,-42,21,-68,58c0,0,-28,36,-41,89c0,0,-15,50,-14,110c0,0,-1,59,14,125c0,0,13,65,41,129c0,0,27,63,69,121c0,0,40,56,94,100c0,0,52,44,119,70c0,0,65,25,143,25c0,0,30,0,61,-4c0,0,30,-6,59,-13c0,0,28,-8,54,-17c0,0,24,-10,41,-19l81,37h81L818,341c0,0,-4,-13,-8,-34c0,0,-5,-21,-8,-44c0,0,-5,-24,-8,-45c0,0,-3,-23,-3,-37c0,0,0,-39,15,-57c0,0,14,-19,38,-19c0,0,1,0,1,0c0,0,1,0,1,0c4,0,23,1,41,10c0,0,19,9,43,22L964,76c0,0,-20,-15,-44,-30c0,0,-25,-18,-55,-30C865,16,834,1,800,-5c0,0,-36,-9,-77,-9c0,0,-69,0,-109,30c0,0,-42,30,-41,91c0,0,0,23,2,47c0,0,2,21,8,52H573c0,0,-28,-53,-56,-94c0,0,-28,-42,-63,-69C454,43,419,14,378,0c0,0,-42,-14,-98,-14Z" 
id="f1_d"
transform="scale(0.001,-0.001)" />

<path d="M301,-14c0,0,-42,0,-78,11c0,0,-37,9,-63,32c0,0,-28,21,-42,55c0,0,-16,33,-16,79c0,0,0,13,2,30c0,0,0,17,3,34c0,0,1,16,5,34c0,0,2,16,6,31l92,423H92l16,78c0,0,32,0,72,11c0,0,38,11,80,37c0,0,39,24,81,66c0,0,40,40,76,100h89L466,819H650L630,715H443L351,296c0,0,-8,-33,-11,-60c0,0,-4,-29,-4,-50c0,0,0,-38,21,-57c0,0,20,-19,56,-19h1c6,0,37,0,63,12c0,0,29,11,55,28L567,92c0,0,-26,-23,-53,-41c0,0,-29,-20,-61,-34C453,17,419,1,383,-5c0,0,-39,-9,-82,-9Z" 
id="f1_e"
transform="scale(0.001,-0.001)" />

<path d="M283,-14c0,0,-89,0,-135,41c0,0,-47,41,-47,115c0,0,0,32,6,78c0,0,5,46,18,104l60,284c0,0,2,10,4,20c0,0,1,10,3,20c0,0,1,9,3,16c0,0,0,6,0,10c0,0,0,21,-4,33c0,0,-5,12,-14,20c0,0,-11,6,-25,9c0,0,-16,2,-37,2H87l14,81H463L357,322c0,0,-9,-42,-15,-77c0,0,-6,-38,-6,-69c0,0,0,-34,15,-51c0,0,12,-18,38,-18c0,0,24,0,44,9c0,0,21,9,47,26L516,90c0,0,-18,-19,-41,-38c0,0,-24,-20,-52,-34C423,18,394,3,360,-5c0,0,-36,-9,-77,-9Zm78,970c-1,0,-2,0,-4,0c0,0,-26,0,-47,6c0,0,-21,5,-37,17c0,0,-17,12,-25,30c0,0,-11,18,-10,42c0,0,-1,34,12,58c0,0,11,23,30,38c0,0,19,14,46,23c0,0,25,6,54,6c0,0,25,0,47,-5c0,0,21,-6,39,-17c0,0,17,-13,27,-30c0,0,10,-19,10,-44c0,0,0,-31,-12,-54c0,0,-13,-25,-33,-39c0,0,-22,-16,-47,-23c0,0,-24,-8,-50,-8Z" 
id="f1_f"
transform="scale(0.001,-0.001)" />

<path d="M41,-366v89c0,0,79,0,136,19c0,0,55,19,95,55c0,0,38,35,64,86c0,0,24,50,43,111L104,665c0,0,-9,21,-20,34c0,0,-12,12,-24,19c0,0,-14,7,-28,9c0,0,-16,1,-32,2v90H436V738c0,0,-45,0,-70,-11c0,0,-27,-13,-27,-46c0,0,0,-13,6,-30c0,0,5,-18,9,-29c0,0,14,-33,29,-69c0,0,13,-39,28,-76c0,0,13,-38,26,-73c0,0,12,-35,23,-62c0,0,10,-29,18,-52c0,0,7,-24,13,-42c0,0,4,-20,7,-35c0,0,3,-18,5,-32c0,0,1,15,6,35c0,0,3,18,9,36c0,0,5,17,11,31c0,0,5,14,7,20L637,602c0,0,2,7,6,18c0,0,2,10,5,20c0,0,2,10,3,20c0,0,1,10,1,17c0,0,0,34,-29,48c0,0,-30,12,-82,13v81H885V738c0,0,-24,0,-41,-5c0,0,-17,-6,-32,-18c0,0,-15,-14,-26,-35c0,0,-12,-21,-24,-53c0,0,-26,-76,-56,-156c0,0,-29,-79,-58,-158c0,0,-30,-80,-59,-158C589,155,559,75,532,0c0,0,-28,-73,-51,-129c0,0,-24,-56,-50,-97c0,0,-27,-42,-59,-68c0,0,-33,-27,-74,-42c0,0,-43,-17,-99,-23c0,0,-57,-7,-132,-7Z" 
id="f0_g"
transform="scale(0.001,-0.001)" />

<path d="M451,-14c0,0,-85,0,-154,21c0,0,-71,21,-120,71c0,0,-51,50,-78,131c0,0,-28,80,-27,198c0,0,0,123,29,206c0,0,27,82,79,133c0,0,50,50,118,72c0,0,68,20,148,20c0,0,73,0,131,-11c0,0,56,-14,94,-35c0,0,38,-21,59,-50c0,0,18,-31,19,-64c0,0,-1,-25,-8,-48c0,0,-10,-24,-31,-41c0,0,-22,-18,-60,-30c0,0,-40,-11,-99,-11c0,0,0,39,-4,76c0,0,-6,35,-17,62c0,0,-11,26,-29,44c0,0,-20,15,-49,15c0,0,-34,0,-60,-15c0,0,-26,-18,-45,-56c0,0,-20,-39,-29,-103c0,0,-11,-66,-11,-163c0,0,0,-156,43,-232c0,0,42,-77,137,-77q1,0,2,0h1c8,0,42,1,73,10c0,0,35,9,63,26c0,0,27,16,50,40c0,0,21,22,34,48c0,0,19,-11,28,-30c0,0,9,-19,9,-40c0,0,-1,-29,-17,-59c0,0,-18,-31,-53,-54C677,40,639,15,584,1c0,0,-57,-15,-133,-15Z" 
id="f0_o"
transform="scale(0.001,-0.001)" />

<path d="M674,452L593,703c0,0,-9,25,-16,55c0,0,-10,28,-18,58c0,0,-8,29,-16,60c0,0,-9,29,-14,56c0,0,-7,-24,-16,-51c0,0,-9,-28,-18,-57c0,0,-11,-29,-21,-58c0,0,-10,-29,-19,-56L365,452ZM6,0V81H25c0,0,20,0,37,5c0,0,16,4,31,17c0,0,14,12,28,34c0,0,12,20,26,55l331,899H688L1007,191c0,0,11,-33,24,-53c0,0,12,-22,27,-34c0,0,13,-12,30,-17c0,0,15,-6,32,-6c1,0,2,0,3,0h27V0H646V81h60c0,0,10,0,23,4c0,0,11,2,21,10c0,0,9,7,15,18c0,0,6,12,6,27c0,0,0,19,-4,36c0,0,-5,16,-9,30L704,359H333L289,228c0,0,-7,-20,-12,-44c0,0,-7,-26,-7,-44c0,0,0,-15,6,-26c0,0,5,-11,16,-18c0,0,9,-8,22,-11c0,0,12,-4,25,-4h65V0Z" 
id="f0_1a"
transform="scale(0.001,-0.001)" />

<path d="M197,0V27c0,0,71,2,92,13c0,0,21,10,29,29c0,0,9,18,9,109V725c0,0,0,110,-8,141c0,0,-5,24,-19,35c0,0,-14,11,-33,11c0,0,-28,0,-77,-23l-11,23l246,121h25V178c0,0,0,-85,7,-106c0,0,7,-21,29,-32c0,0,23,-11,91,-13V0Z" 
id="f2_l"
transform="scale(0.001,-0.001)" />

<path d="M238,-17c0,0,-103,0,-139,25C99,8,62,33,62,62c0,0,0,22,17,38c0,0,18,16,42,16c0,0,19,0,38,-6c0,0,13,-3,58,-27c0,0,45,-23,62,-28c0,0,27,-8,59,-8c0,0,76,0,132,59c0,0,56,59,56,140c0,0,0,59,-26,115c0,0,-19,41,-42,63c0,0,-32,30,-88,54c0,0,-56,25,-114,25H232v22c0,0,59,8,118,42c0,0,59,35,86,85c0,0,27,49,27,108c0,0,0,76,-48,124c0,0,-48,47,-120,47c0,0,-116,0,-193,-124L77,819c0,0,44,102,110,158c0,0,66,56,164,56c0,0,122,0,187,-80c0,0,49,-58,49,-126c0,0,0,-110,-139,-228c0,0,93,-36,141,-104c0,0,48,-68,48,-160c0,0,0,-131,-84,-227C553,108,444,-17,238,-17Z" 
id="f2_n"
transform="scale(0.001,-0.001)" />


</defs>
</svg>