<?xml version="1.0" encoding="UTF-8" standalone="no"?>
<!DOCTYPE svg PUBLIC "-//W3C//DTD SVG 1.1//EN"
"http://www.w3.org/Graphics/SVG/1.1/DTD/svg11.dtd">
<svg viewBox="0 0 909 1286" version="1.1" xmlns="http://www.w3.org/2000/svg" xmlns:xlink="http://www.w3.org/1999/xlink">
<defs>
<clipPath id="c0_15"><path d="M35.1,1194.7V113.1H873.9V1194.7Z" /></clipPath>
<style type="text/css"><![CDATA[
.g0_15{
fill: #F2F2F2;
}
.g1_15{
fill: #808080;
}
]]></style>
</defs>
<path d="M47.4,175.7H201.7v64.2H47.4V175.7Z" class="g0_15" />
<path d="M201.7,175.7H351.4v64.2H201.7V175.7Z" class="g0_15" />
<path d="M351.4,175.7h168v64.2h-168V175.7Z" class="g0_15" />
<path d="M519.4,175.7H689v64.2H519.4V175.7Z" class="g0_15" />
<path d="M689,175.7H860.1v64.2H689V175.7Z" class="g0_15" />
<path d="M689,175.7H861.7v1.5H689v-1.5Z" class="g1_15" />
<path d="M689,239.9H861.7v1.5H689v-1.5Z" class="g1_15" />
<path d="M689,175.7h1.6v65.7H689V175.7Z" class="g1_15" />
<path d="M860.1,175.7h1.6v65.7h-1.6V175.7Z" class="g1_15" />
<path d="M519.4,175.7H690.6v1.5H519.4v-1.5Z" class="g1_15" />
<path d="M519.4,239.9H690.6v1.5H519.4v-1.5Z" class="g1_15" />
<path d="M519.4,175.7H521v65.7h-1.6V175.7Z" class="g1_15" />
<path d="M689,175.7h1.6v65.7H689V175.7Z" class="g1_15" />
<path d="M351.4,175.7H521v1.5H351.4v-1.5Z" class="g1_15" />
<path d="M351.4,239.9H521v1.5H351.4v-1.5Z" class="g1_15" />
<path d="M351.4,175.7h1.5v65.7h-1.5V175.7Z" class="g1_15" />
<path d="M519.4,175.7H521v65.7h-1.6V175.7Z" class="g1_15" />
<path d="M201.7,175.7H352.9v1.5H201.7v-1.5Z" class="g1_15" />
<path d="M201.7,239.9H352.9v1.5H201.7v-1.5Z" class="g1_15" />
<path d="M201.7,175.7h1.5v65.7h-1.5V175.7Z" class="g1_15" />
<path d="M351.4,175.7h1.5v65.7h-1.5V175.7Z" class="g1_15" />
<path d="M47.4,175.7H203.2v1.5H47.4v-1.5Z" class="g1_15" />
<path d="M47.4,239.9H203.2v1.5H47.4v-1.5Z" class="g1_15" />
<path d="M47.4,175.7h1.5v65.7H47.4V175.7Z" class="g1_15" />
<path d="M201.7,175.7h1.5v65.7h-1.5V175.7Z" class="g1_15" />
<path d="M689,175.7H861.7v1.5H689v-1.5Z" class="g1_15" />
<g clip-path="url(#c0_15)">
<path d="M689,91.7h1.6v85.5H689V91.7Z" class="g1_15" />
<path d="M860.1,91.7h1.6v85.5h-1.6V91.7Z" class="g1_15" />
</g>
<path d="M519.4,175.7H690.6v1.5H519.4v-1.5Z" class="g1_15" />
<g clip-path="url(#c0_15)">
<path d="M519.4,91.7H521v85.5h-1.6V91.7Z" class="g1_15" />
<path d="M689,91.7h1.6v85.5H689V91.7Z" class="g1_15" />
</g>
<path d="M351.4,175.7H521v1.5H351.4v-1.5Z" class="g1_15" />
<g clip-path="url(#c0_15)">
<path d="M351.4,91.7h1.5v85.5h-1.5V91.7Z" class="g1_15" />
<path d="M519.4,91.7H521v85.5h-1.6V91.7Z" class="g1_15" />
</g>
<path d="M201.7,175.7H352.9v1.5H201.7v-1.5Z" class="g1_15" />
<g clip-path="url(#c0_15)">
<path d="M201.7,91.7h1.5v85.5h-1.5V91.7Z" class="g1_15" />
<path d="M351.4,91.7h1.5v85.5h-1.5V91.7Z" class="g1_15" />
</g>
<path d="M47.4,175.7H203.2v1.5H47.4v-1.5Z" class="g1_15" />
<g clip-path="url(#c0_15)">
<path d="M47.4,91.7h1.5v85.5H47.4V91.7Z" class="g1_15" />
<path d="M201.7,91.7h1.5v85.5h-1.5V91.7Z" class="g1_15" />
<g fill="#000000" >
<use xlink:href="#f0_t" transform="matrix(12,0,0,12,56.5,139)" />
<use xlink:href="#f0_3" transform="matrix(12,0,0,12,210.8,139)" />
<use xlink:href="#f0_4" transform="matrix(12,0,0,12,221.1,139)" />
<use xlink:href="#f0_e" transform="matrix(12,0,0,12,226.3,139)" />
<use xlink:href="#f0_e" transform="matrix(12,0,0,12,236.5,139)" />
<use xlink:href="#f0_6" transform="matrix(12,0,0,12,360.6,139)" />
</g>
</g>
<image preserveAspectRatio="none" x="529" y="113" width="120" height="63" xlink:href="img/1.png" />
<image preserveAspectRatio="none" x="698" y="113" width="106" height="63" xlink:href="img/2.png" />
<g clip-path="url(#c0_15)">
<g fill="#000000" >
<use xlink:href="#f0_j" transform="matrix(12,0,0,12,56.5,215.4)" />
<use xlink:href="#f0_3" transform="matrix(12,0,0,12,210.8,215.4)" />
<use xlink:href="#f0_y" transform="matrix(12,0,0,12,221.1,215.4)" />
<use xlink:href="#f0_4" transform="matrix(12,0,0,12,231.3,215.4)" />
<use xlink:href="#f0_y" transform="matrix(12,0,0,12,236.5,215.4)" />
<use xlink:href="#f0_f" transform="matrix(12,0,0,12,246.8,215.4)" />
<use xlink:href="#f0_6" transform="matrix(12,0,0,12,360.6,215.4)" />
<use xlink:href="#f0_f" transform="matrix(12,0,0,12,370.8,215.4)" />
</g>
</g>
<image preserveAspectRatio="none" x="529" y="177" width="133" height="63" xlink:href="img/3.png" />
<image preserveAspectRatio="none" x="698" y="177" width="87" height="63" xlink:href="img/4.png" />
<g clip-path="url(#c0_15)">
<g fill="#000000" >
<use xlink:href="#f0_10" transform="matrix(12,0,0,12,47.4,282.6)" />
<use xlink:href="#f0_11" transform="matrix(12,0,0,12,58.8,282.6)" />
<use xlink:href="#f0_12" transform="matrix(12,0,0,12,76.1,282.6)" />
<use xlink:href="#f0_13" transform="matrix(12,0,0,12,87.3,282.6)" />
<use xlink:href="#f0_b" transform="matrix(12,0,0,12,93.2,282.6)" />
<use xlink:href="#f0_13" transform="matrix(12,0,0,12,101.8,282.6)" />
<use xlink:href="#f0_m" transform="matrix(12,0,0,12,107.6,282.6)" />
<use xlink:href="#f0_o" transform="matrix(12,0,0,12,116.7,282.6)" />
<use xlink:href="#f0_14" transform="matrix(12,0,0,12,127,282.6)" />
<use xlink:href="#f0_q" transform="matrix(12,0,0,12,137.4,282.6)" />
<use xlink:href="#f0_h" transform="matrix(12,0,0,12,144.2,282.6)" />
<use xlink:href="#f0_b" transform="matrix(12,0,0,12,154.7,282.6)" />
<use xlink:href="#f0_11" transform="matrix(12,0,0,12,163.4,282.6)" />
<use xlink:href="#f0_i" transform="matrix(12,0,0,12,180.7,282.6)" />
<use xlink:href="#f0_14" transform="matrix(12,0,0,12,192.3,282.6)" />
<use xlink:href="#f0_o" transform="matrix(12,0,0,12,198,282.6)" />
<use xlink:href="#f0_s" transform="matrix(12,0,0,12,213,282.6)" />
<use xlink:href="#f0_x" transform="matrix(12,0,0,12,228,282.6)" />
<use xlink:href="#f0_6" transform="matrix(10,0,0,10,239.3,287.2)" />
<use xlink:href="#f0_4" transform="matrix(10,0,0,10,247.8,287.2)" />
<use xlink:href="#f0_15" transform="matrix(10,0,0,10,252.2,287.2)" />
<use xlink:href="#f0_15" transform="matrix(10,0,0,10,260.7,287.2)" />
<use xlink:href="#f0_t" transform="matrix(12,0,0,12,273.2,282.6)" />
<use xlink:href="#f0_6" transform="matrix(10,0,0,10,287.7,287.2)" />
<use xlink:href="#f0_4" transform="matrix(10,0,0,10,296.2,287.2)" />
<use xlink:href="#f0_e" transform="matrix(10,0,0,10,300.6,287.2)" />
<use xlink:href="#f0_j" transform="matrix(12,0,0,12,313.1,282.6)" />
<use xlink:href="#f0_16" transform="matrix(12,0,0,12,326.7,282.6)" />
<use xlink:href="#f0_s" transform="matrix(12,0,0,12,47.4,339.2)" />
<use xlink:href="#f0_x" transform="matrix(12,0,0,12,62.4,339.2)" />
<use xlink:href="#f0_d" transform="matrix(10,0,0,10,73.6,343.8)" />
<use xlink:href="#f0_t" transform="matrix(12,0,0,12,82.1,339.2)" />
<use xlink:href="#f0_z" transform="matrix(10,0,0,10,96.7,343.8)" />
<use xlink:href="#f0_j" transform="matrix(12,0,0,12,105.2,339.2)" />
<use xlink:href="#f0_f" transform="matrix(10,0,0,10,118.8,343.8)" />
</g>
</g>
<g fill="#000000" >
<use xlink:href="#f1_l" transform="matrix(12,0,0,12,835.7,1269.6)" />
<use xlink:href="#f1_p" transform="matrix(12,0,0,12,844.9,1269.6)" />
</g>
<defs>
<path d="M58,0V64H78c0,0,25,0,49,4c0,0,22,3,39,16c0,0,17,11,27,32c0,0,10,21,10,58V923c0,0,0,33,-10,54c0,0,-11,20,-27,32c0,0,-18,11,-40,14c0,0,-24,3,-48,3H58v65H503v-65H483c0,0,-26,0,-49,-3c0,0,-24,-4,-39,-15c0,0,-18,-13,-27,-34c0,0,-11,-21,-11,-57V608H854V917c0,0,0,36,-10,57c0,0,-10,21,-26,34c0,0,-18,11,-40,15c0,0,-24,3,-49,3H709v65h444v-65h-19c0,0,-26,0,-49,-3c0,0,-23,-4,-40,-15c0,0,-17,-13,-27,-34c0,0,-10,-21,-9,-57V166c0,0,0,-33,10,-53c0,0,10,-22,27,-32c0,0,16,-10,40,-13c0,0,22,-4,48,-4h19V0H709V64h20c0,0,25,0,49,4c0,0,22,3,40,16c0,0,16,11,26,32c0,0,10,21,10,58V532H357V174c0,0,0,-37,11,-58c0,0,9,-21,27,-32c0,0,15,-13,39,-16c0,0,23,-4,49,-4h20V0Z" 
id="f0_t"
transform="scale(0.001,-0.001)" />

<path d="M501,385V668c0,0,0,33,0,74c0,0,0,40,0,82c0,0,0,41,0,83c0,0,0,41,6,77c0,0,-6,-11,-15,-28c0,0,-10,-18,-21,-39c0,0,-13,-23,-26,-46c0,0,-15,-24,-28,-46c0,0,-15,-24,-26,-42c0,0,-13,-21,-21,-34L136,385ZM328,0V64h43c0,0,26,0,50,4c0,0,22,3,39,16c0,0,17,11,27,32c0,0,10,21,10,58V299H26v63l472,729H643V385H833V299H643V174c0,0,0,-37,10,-58c0,0,10,-21,27,-32c0,0,16,-13,40,-16c0,0,22,-4,48,-4h21V0Z" 
id="f0_3"
transform="scale(0.001,-0.001)" />

<path d="M222,-9c-1,0,-2,0,-3,0c0,0,-1,0,-3,0c-6,0,-22,0,-35,5c0,0,-18,4,-30,16c0,0,-14,12,-21,32c0,0,-8,20,-8,49c0,0,0,30,8,50c0,0,7,19,21,32c0,0,12,11,30,17c0,0,17,5,38,5c0,0,18,0,37,-5c0,0,16,-6,30,-17c0,0,12,-13,21,-32c0,0,8,-20,8,-50c0,0,0,-29,-8,-49c0,0,-9,-20,-21,-32C286,12,272,0,256,-4c0,0,-17,-5,-34,-5Z" 
id="f0_4"
transform="scale(0.001,-0.001)" />

<path d="M377,-14c-2,0,-3,0,-4,0c0,0,-86,0,-140,14c0,0,-57,14,-89,37c0,0,-33,21,-46,50c0,0,-14,26,-14,52c0,0,0,42,24,66c0,0,23,23,73,24c0,0,-1,-34,11,-61c0,0,11,-28,35,-49c0,0,22,-21,57,-32c0,0,33,-12,77,-12c1,0,2,0,4,0c0,0,47,0,87,13c0,0,39,12,69,43c0,0,29,29,46,80c0,0,16,49,16,122c0,0,0,60,-16,105c0,0,-17,44,-47,74c0,0,-31,30,-73,45c0,0,-43,14,-96,14c0,0,-40,0,-68,-3c0,0,-29,-3,-50,-7c0,0,-23,-6,-39,-11c0,0,-17,-7,-31,-12l-36,10l49,541H690V859H630l-6,45c0,0,-3,16,-6,28c0,0,-5,12,-14,20c0,0,-9,7,-24,11c0,0,-16,3,-39,4H245L216,631c0,0,23,8,67,17c0,0,42,7,111,8c0,0,74,0,138,-20c0,0,63,-21,110,-61c0,0,47,-40,74,-101c0,0,26,-61,26,-141c0,0,0,-79,-24,-142c0,0,-26,-64,-73,-110C645,81,597,35,529,10c0,0,-67,-24,-152,-24Z" 
id="f0_e"
transform="scale(0.001,-0.001)" />

<path d="M147,0V64H249c0,0,26,0,49,4c0,0,23,3,40,16c0,0,16,11,27,32c0,0,9,21,9,58V976c0,0,-29,-35,-55,-64c0,0,-27,-29,-50,-50c0,0,-24,-22,-46,-32c0,0,-22,-12,-44,-12c0,0,-1,0,-1,0c0,0,-1,0,-1,0c-3,0,-35,0,-55,23c0,0,-21,21,-21,59c0,0,23,5,47,15c0,0,23,7,50,22c0,0,25,13,57,34c0,0,30,18,69,47l107,79h98V174c0,0,-1,-37,10,-58c0,0,9,-21,26,-32c0,0,17,-13,41,-16c0,0,22,-4,48,-4h75V0Z" 
id="f0_6"
transform="scale(0.001,-0.001)" />

<path d="M567,67c0,0,85,0,145,33c0,0,59,32,96,94c0,0,36,61,53,151c0,0,16,88,16,202c0,0,0,112,-16,203c0,0,-17,88,-53,150c0,0,-37,60,-96,93c0,0,-59,32,-144,32c0,0,-85,0,-144,-32c0,0,-61,-33,-97,-93c0,0,-38,-62,-55,-150c0,0,-17,-91,-17,-203c0,0,0,-114,17,-202c0,0,17,-90,54,-151c0,0,37,-62,97,-94c0,0,59,-33,144,-33Zm0,-81c0,0,-122,0,-212,39c0,0,-91,41,-150,115c0,0,-60,73,-89,178c0,0,-31,103,-30,230c0,0,-1,126,30,231c0,0,29,103,89,176c0,0,59,72,151,113c0,0,90,39,212,40c0,0,115,-1,205,-40c0,0,88,-41,150,-113c0,0,61,-74,92,-177c0,0,32,-104,32,-231c0,0,0,-127,-32,-230c0,0,-31,-104,-92,-177C923,140,861,66,772,25c0,0,-90,-39,-205,-39Z" 
id="f0_j"
transform="scale(0.001,-0.001)" />

<path d="M290,0L650,967H249c0,0,-82,-1,-89,-78l-6,-76H94v276H781v-44L405,0Z" 
id="f0_y"
transform="scale(0.001,-0.001)" />

<path d="M452,69c0,0,81,0,125,64c0,0,43,63,43,202c0,0,-1,130,-46,190c0,0,-47,59,-135,60c0,0,-30,0,-57,-8c0,0,-28,-8,-52,-20c0,0,-24,-12,-44,-28c0,0,-20,-17,-36,-32c0,0,0,-116,15,-196c0,0,14,-82,40,-133c0,0,26,-52,64,-75c0,0,37,-24,83,-24Zm-5,-83c-6,0,-78,1,-140,31c0,0,-65,31,-112,100c0,0,-49,68,-75,175c0,0,-27,106,-27,258c0,0,0,72,11,142c0,0,10,69,33,131c0,0,20,61,54,114c0,0,32,52,78,90c0,0,43,37,100,58c0,0,55,21,123,21c0,0,63,0,112,-13c0,0,46,-14,78,-36c0,0,31,-22,47,-51c0,0,14,-30,15,-60c0,0,0,-45,-30,-68c0,0,-31,-24,-87,-24c0,0,0,37,-8,70c0,0,-7,32,-23,57c0,0,-17,23,-42,38c0,0,-27,13,-64,13c0,0,-117,0,-176,-112c0,0,-60,-114,-60,-337c0,0,19,16,41,31c0,0,23,14,50,25c0,0,26,10,58,17c0,0,31,7,68,7c0,0,69,-1,127,-21c0,0,55,-22,95,-62c0,0,40,-41,61,-99c0,0,21,-59,22,-131c0,0,-1,-81,-22,-148c0,0,-23,-67,-64,-115C690,87,648,39,587,12c0,0,-62,-26,-139,-26c0,0,-1,0,-1,0Z" 
id="f0_f"
transform="scale(0.001,-0.001)" />

<path d="M58,0V64H78c0,0,24,0,48,4c0,0,22,3,40,13c0,0,16,10,27,32c0,0,10,20,10,53V917c0,0,0,36,-10,57c0,0,-10,21,-27,34c0,0,-17,11,-39,15c0,0,-24,3,-49,3H58v65H832V824H756l-7,65c0,0,-4,25,-11,49c0,0,-9,22,-25,39c0,0,-17,17,-40,28c0,0,-25,10,-59,10H357V608H726V533H357V76H652c0,0,37,0,63,11c0,0,25,9,42,26c0,0,17,17,27,41c0,0,10,21,13,47l11,66h75V0Z" 
id="f0_10"
transform="scale(0.001,-0.001)" />

<path d="M43,0V64H63c0,0,25,0,47,4c0,0,21,3,38,16c0,0,15,11,24,32c0,0,8,21,9,58V650c0,0,0,33,-9,55c0,0,-9,20,-25,31c0,0,-16,11,-37,15c0,0,-22,3,-47,4H58v64H298L318,695h7c0,0,23,42,49,70c0,0,25,27,54,43c0,0,28,14,61,21c0,0,31,5,67,5c0,0,36,0,71,-7c0,0,33,-9,62,-24c0,0,28,-17,52,-43c0,0,21,-27,36,-65h13c0,0,23,42,50,70c0,0,27,27,57,43c0,0,30,14,64,21c0,0,32,5,68,5c0,0,59,-1,105,-17c0,0,45,-18,78,-54c0,0,32,-37,49,-93c0,0,17,-58,18,-135V174c0,0,0,-37,9,-58c0,0,9,-21,24,-32c0,0,16,-13,37,-16c0,0,21,-4,47,-4h5V0H1135V527c0,0,0,50,-8,89c0,0,-9,39,-27,66c0,0,-21,26,-50,41c0,0,-32,13,-75,13c0,0,-48,0,-80,-18c0,0,-33,-19,-53,-50c0,0,-21,-31,-28,-72c0,0,-9,-42,-9,-87V174c0,0,0,-37,9,-58c0,0,9,-21,24,-32c0,0,16,-13,38,-16c0,0,21,-4,47,-4h4V0H662V527c0,0,-1,50,-9,89c0,0,-8,39,-27,66c0,0,-20,26,-50,41c0,0,-31,13,-75,13c0,0,-50,0,-83,-20c0,0,-35,-20,-55,-54c0,0,-22,-35,-30,-79c0,0,-9,-45,-9,-94V166c0,0,0,-33,10,-53c0,0,10,-22,27,-32c0,0,16,-10,40,-13c0,0,22,-4,48,-4h5V0Z" 
id="f0_11"
transform="scale(0.001,-0.001)" />

<path d="M518,83c0,0,50,0,86,21c0,0,35,21,58,63c0,0,23,41,33,104c0,0,10,61,11,142c0,0,-1,80,-11,142c0,0,-10,60,-33,101c0,0,-23,40,-58,60c0,0,-38,20,-88,20c0,0,-60,0,-99,-19c0,0,-41,-20,-64,-61c0,0,-24,-40,-34,-101c0,0,-10,-62,-10,-144c0,0,0,-80,10,-141c0,0,10,-62,35,-103c0,0,23,-42,64,-63c0,0,39,-21,100,-21ZM28,-366v64H40c0,0,25,0,49,4c0,0,22,3,39,16c0,0,17,11,27,33c0,0,10,21,10,58V650c0,0,0,33,-10,55c0,0,-11,20,-27,31c0,0,-18,11,-40,15c0,0,-24,3,-48,4H20v64H287L303,681h6c0,0,16,34,39,63c0,0,21,28,50,49c0,0,27,19,64,31c0,0,36,9,80,10c0,0,75,0,134,-25c0,0,58,-26,98,-76c0,0,38,-53,60,-132c0,0,20,-80,20,-190c0,0,0,-111,-20,-191c0,0,-22,-80,-60,-133c0,0,-40,-53,-98,-77c0,0,-57,-24,-131,-24c-1,0,-2,0,-3,0h-2c-8,0,-46,1,-77,10c0,0,-37,8,-65,26c0,0,-29,18,-50,43c0,0,-23,24,-39,54h-3c0,0,0,-39,0,-73c0,0,0,-15,0,-30c0,0,0,-15,0,-28c0,0,0,-14,0,-24c0,0,0,-11,0,-17V-199c0,0,0,-33,10,-54c0,0,10,-21,28,-31c0,0,17,-11,41,-14c0,0,23,-4,49,-4h5v-64Z" 
id="f0_12"
transform="scale(0.001,-0.001)" />

<path d="M35,0V64H55c0,0,25,0,49,4c0,0,22,3,39,13c0,0,17,10,28,32c0,0,10,20,10,53V650c0,0,0,33,-10,55c0,0,-11,20,-28,31c0,0,-17,11,-39,15c0,0,-24,3,-49,4H51v64H324V174c0,0,0,-37,10,-58c0,0,10,-21,27,-32c0,0,16,-13,40,-16c0,0,22,-4,48,-4h20V0ZM249,972c-1,0,-2,0,-3,0c0,0,-1,0,-2,0c-5,0,-20,0,-32,5c0,0,-16,5,-28,16c0,0,-12,11,-18,29c0,0,-7,18,-7,45c0,0,0,27,7,45c0,0,6,17,18,29c0,0,12,11,28,15c0,0,15,5,34,5c0,0,18,0,34,-5c0,0,15,-4,27,-15c0,0,11,-12,19,-29c0,0,7,-18,7,-45c0,0,0,-27,-7,-45c0,0,-8,-18,-19,-29c0,0,-12,-11,-27,-16c0,0,-14,-5,-31,-5Z" 
id="f0_13"
transform="scale(0.001,-0.001)" />

<path d="M51,0V64h4c0,0,26,0,49,4c0,0,23,3,40,16c0,0,16,11,27,32c0,0,10,21,10,58V650c0,0,0,33,-10,55c0,0,-11,20,-28,31c0,0,-17,11,-39,15c0,0,-24,3,-49,4H51v64H286L315,668h7c0,0,14,34,31,65c0,0,15,29,39,53c0,0,22,22,56,35c0,0,33,12,84,13c0,0,83,0,124,-29c0,0,41,-30,41,-82c0,0,0,-24,-8,-44c0,0,-9,-20,-25,-34c0,0,-17,-15,-44,-23c0,0,-27,-8,-66,-8c0,0,0,63,-18,92c0,0,-18,27,-62,27c0,0,-29,0,-51,-15c0,0,-22,-18,-39,-43c0,0,-17,-27,-28,-61c0,0,-13,-35,-19,-70c0,0,-8,-37,-10,-73c0,0,-4,-35,-3,-64V166c0,0,0,-33,10,-53c0,0,10,-22,27,-32c0,0,16,-10,40,-13c0,0,22,-4,48,-4h43V0Z" 
id="f0_b"
transform="scale(0.001,-0.001)" />

<path d="M433,-14c0,0,-77,0,-141,23c0,0,-64,23,-110,74c0,0,-46,50,-72,130c0,0,-26,79,-26,192c0,0,0,122,26,205c0,0,26,82,72,132c0,0,46,49,108,71c0,0,61,21,134,21c0,0,47,0,96,-9c0,0,47,-10,85,-29c0,0,38,-19,62,-49c0,0,23,-30,24,-69c0,0,0,-54,-35,-74c0,0,-35,-22,-102,-22c0,0,0,35,-6,68c0,0,-6,32,-20,56c0,0,-15,24,-39,38c0,0,-26,14,-65,14c0,0,-44,0,-79,-16c0,0,-35,-18,-61,-57c0,0,-26,-40,-39,-108c0,0,-13,-69,-13,-170c0,0,-1,-164,54,-243c0,0,54,-80,177,-80h1c6,0,72,1,123,30c0,0,52,30,79,77c0,0,11,-10,19,-24c0,0,7,-15,7,-36c0,0,0,-27,-16,-52c0,0,-17,-26,-49,-47C627,32,594,10,546,0c0,0,-48,-14,-113,-14Z" 
id="f0_m"
transform="scale(0.001,-0.001)" />

<path d="M348,79c0,0,46,0,85,15c0,0,36,14,64,42c0,0,25,27,40,66c0,0,14,39,14,87V412H454c0,0,-65,0,-109,-14c0,0,-44,-13,-70,-36c0,0,-27,-25,-39,-59c0,0,-12,-35,-11,-80c0,0,0,-73,30,-108c0,0,29,-36,93,-36ZM313,-14c0,0,-50,0,-94,14c0,0,-44,14,-75,45c0,0,-33,30,-50,77c0,0,-18,47,-18,109c0,0,0,123,87,182c0,0,85,59,261,60H551v93c0,0,0,42,-4,78c0,0,-5,34,-20,60c0,0,-15,26,-42,40c0,0,-28,14,-75,14c0,0,-44,0,-71,-12c0,0,-29,-13,-43,-35c0,0,-16,-23,-21,-53c0,0,-6,-31,-5,-66c0,0,-64,0,-96,21c0,0,-34,21,-34,75c0,0,0,39,22,67c0,0,21,28,60,45c0,0,36,17,87,26c0,0,49,7,107,8c0,0,69,0,122,-13c0,0,52,-15,87,-46c0,0,34,-31,53,-81c0,0,17,-52,17,-124V174c0,0,0,-33,5,-53c0,0,6,-22,17,-34c0,0,10,-12,30,-18c0,0,15,-5,38,-5c2,0,3,0,5,0h4V0H588L564,131H551c0,0,-24,-33,-46,-59c0,0,-22,-27,-49,-46C456,26,429,6,395,-3c0,0,-35,-11,-82,-11Z" 
id="f0_o"
transform="scale(0.001,-0.001)" />

<path d="M20,0V64H40c0,0,25,0,49,4c0,0,22,3,39,16c0,0,17,11,27,32c0,0,10,21,10,58V993c0,0,0,33,-10,54c0,0,-11,21,-27,32c0,0,-18,11,-40,15c0,0,-24,3,-48,3H20v64H309V174c0,0,-1,-37,10,-58c0,0,9,-21,26,-32c0,0,17,-13,41,-16c0,0,22,-4,48,-4h20V0Z" 
id="f0_14"
transform="scale(0.001,-0.001)" />

<path d="M41,0V64H61c0,0,26,0,49,4c0,0,23,3,40,16c0,0,16,11,27,32c0,0,9,21,9,58V747H47v72H186v76c0,0,0,68,19,121c0,0,19,52,54,88c0,0,34,35,85,55c0,0,50,17,113,17c0,0,58,0,100,-7c0,0,41,-8,67,-22c0,0,24,-15,35,-34c0,0,12,-20,12,-43c0,0,0,-22,-9,-37c0,0,-11,-17,-26,-27c0,0,-18,-11,-40,-16c0,0,-24,-6,-51,-6c0,0,0,23,-4,45c0,0,-6,21,-17,39c0,0,-12,17,-31,28c0,0,-19,10,-48,10c0,0,-34,0,-55,-12c0,0,-22,-13,-36,-38c0,0,-13,-26,-18,-62c0,0,-6,-37,-6,-85V819H545V747H330V174c0,0,0,-37,10,-58c0,0,10,-21,27,-32c0,0,16,-13,40,-16c0,0,22,-4,48,-4h58V0Z" 
id="f0_q"
transform="scale(0.001,-0.001)" />

<path d="M442,64c0,0,56,0,97,23c0,0,38,22,64,66c0,0,24,43,36,108c0,0,9,65,10,150c0,0,0,85,-11,149c0,0,-11,64,-36,108c0,0,-25,42,-64,64c0,0,-41,21,-98,21c0,0,-58,0,-97,-21c0,0,-39,-22,-64,-64c0,0,-25,-44,-36,-108c0,0,-11,-64,-11,-149c0,0,0,-85,11,-150c0,0,11,-65,37,-108c0,0,24,-44,65,-66c0,0,38,-23,97,-23Zm-3,-78c0,0,-83,0,-149,25c0,0,-66,26,-111,79c0,0,-47,52,-70,134c0,0,-25,79,-25,187c0,0,0,213,91,319c0,0,90,103,268,104c0,0,82,0,149,-25c0,0,65,-26,111,-79c0,0,46,-53,71,-132c0,0,23,-80,23,-187c0,0,0,-216,-91,-321C706,90,614,-14,439,-14Z" 
id="f0_h"
transform="scale(0.001,-0.001)" />

<path d="M417,-14c0,0,-60,0,-107,16c0,0,-47,17,-79,54c0,0,-33,36,-49,93c0,0,-17,57,-17,135V650c0,0,0,33,-10,55c0,0,-11,20,-27,31c0,0,-18,11,-40,15c0,0,-24,3,-48,4H35v64H309V292c0,0,0,-51,8,-89c0,0,7,-40,26,-66c0,0,18,-27,49,-40c0,0,29,-14,74,-14c1,0,2,0,3,0c0,0,50,0,88,18c0,0,35,18,59,50c0,0,23,32,34,78c0,0,12,46,12,101V645c0,0,0,35,-10,58c0,0,-10,21,-27,33c0,0,-17,11,-39,15c0,0,-24,3,-50,4h-4v64H805V166c0,0,0,-33,10,-53c0,0,10,-22,27,-32c0,0,17,-10,41,-13c0,0,21,-4,47,-4h5V0H692L672,124h-7c0,0,-24,-44,-51,-70c0,0,-28,-28,-60,-42c0,0,-31,-15,-65,-20c0,0,-35,-6,-72,-6Z" 
id="f0_i"
transform="scale(0.001,-0.001)" />

<path d="M99,350v90H755V350Zm0,300v91H755V650Z" 
id="f0_s"
transform="scale(0.001,-0.001)" />

<path d="M557,-14c-2,0,-4,0,-6,0c0,0,-115,0,-200,39c0,0,-87,41,-145,115c0,0,-60,73,-89,177c0,0,-30,103,-30,230c0,0,0,124,32,227c0,0,31,103,93,176c0,0,61,73,153,115c0,0,92,41,212,41c0,0,79,0,137,-12c0,0,57,-14,96,-37c0,0,38,-24,58,-54c0,0,18,-32,18,-68c0,0,0,-26,-9,-44c0,0,-11,-20,-29,-34c0,0,-18,-15,-42,-21c0,0,-23,-8,-49,-8c-1,0,-2,0,-4,0c0,0,0,36,-9,71c0,0,-10,34,-30,63c0,0,-22,28,-55,46c0,0,-35,16,-85,17c0,0,-86,0,-147,-31c0,0,-60,-33,-98,-93c0,0,-39,-62,-55,-150c0,0,-17,-89,-17,-204c0,0,0,-102,18,-187c0,0,17,-85,56,-146c0,0,39,-62,99,-95c0,0,59,-33,144,-33c0,0,56,0,100,11c0,0,42,10,75,28c0,0,32,18,58,42c0,0,25,22,44,49c0,0,12,-9,21,-23c0,0,8,-15,8,-37c0,0,0,-29,-19,-59c0,0,-20,-31,-61,-55C800,42,759,17,698,1c0,0,-59,-15,-141,-15Z" 
id="f0_x"
transform="scale(0.001,-0.001)" />

<path d="M383,-14c-2,0,-4,0,-6,0h-1c-12,0,-79,1,-128,14c0,0,-56,12,-90,36c0,0,-36,23,-52,54c0,0,-17,30,-17,64c0,0,0,46,26,73c0,0,25,25,70,25c0,0,0,-40,13,-74c0,0,12,-35,38,-59c0,0,24,-24,61,-38c0,0,34,-14,79,-14c1,0,2,0,3,0c0,0,45,0,86,13c0,0,42,12,73,42c0,0,30,29,50,76c0,0,18,47,18,115c0,0,0,48,-18,88c0,0,-20,38,-55,67c0,0,-36,27,-88,43c0,0,-52,14,-115,15H281v78h49c0,0,50,0,94,17c0,0,44,16,77,47c0,0,31,29,50,74c0,0,19,43,19,98c0,0,0,45,-9,80c0,0,-10,34,-28,59c0,0,-21,25,-51,38c0,0,-32,12,-75,12c0,0,-53,0,-85,-18c0,0,-33,-20,-52,-50c0,0,-19,-31,-25,-73c0,0,-7,-41,-7,-86c0,0,-28,0,-52,4c0,0,-23,4,-41,17c0,0,-18,11,-28,30c0,0,-10,19,-10,48c0,0,0,43,19,82c0,0,19,37,57,65c0,0,38,28,94,43c0,0,56,15,130,15c0,0,71,0,131,-16c0,0,59,-17,101,-47c0,0,41,-31,65,-76c0,0,23,-46,23,-104c0,0,0,-51,-18,-97c0,0,-19,-46,-51,-82c0,0,-33,-38,-78,-63c0,0,-45,-27,-97,-39c0,0,27,-4,60,-10c0,0,32,-8,63,-21c0,0,32,-13,61,-33c0,0,28,-20,51,-50c0,0,21,-29,35,-67c0,0,12,-39,12,-89c0,0,0,-62,-16,-110c0,0,-17,-48,-45,-84c0,0,-29,-37,-67,-62c0,0,-38,-26,-81,-41C556,15,512,0,467,-6c0,0,-42,-8,-84,-8Z" 
id="f0_15"
transform="scale(0.001,-0.001)" />

<path d="M46,-234v64c0,0,74,23,110,58c0,0,34,35,35,79c0,0,-1,15,-8,26c0,0,-9,8,-21,17c0,0,-13,6,-27,15c0,0,-15,7,-27,18c0,0,-13,9,-21,26c0,0,-8,14,-8,38c0,0,0,43,29,67c0,0,28,23,71,23c0,0,23,-1,45,-8c0,0,20,-9,37,-26c0,0,16,-17,26,-41c0,0,9,-27,9,-58c0,0,0,-48,-13,-93c0,0,-14,-46,-44,-84c0,0,-30,-40,-77,-70c0,0,-49,-31,-116,-51Z" 
id="f0_16"
transform="scale(0.001,-0.001)" />

<path d="M424,55c0,0,50,0,91,16c0,0,41,14,70,42c0,0,27,27,44,64c0,0,16,36,16,81c0,0,0,39,-15,72c0,0,-15,33,-46,65c0,0,-33,29,-83,60c0,0,-51,28,-125,61c0,0,-73,-39,-115,-100c0,0,-42,-63,-42,-149c0,0,0,-48,13,-86c0,0,12,-40,39,-67c0,0,24,-29,64,-43c0,0,39,-16,89,-16Zm31,565c0,0,43,21,72,45c0,0,27,21,44,50c0,0,16,27,23,59c0,0,7,32,7,73c0,0,0,34,-9,68c0,0,-11,34,-30,61c0,0,-22,25,-54,42c0,0,-34,16,-82,16c0,0,-43,0,-75,-13c0,0,-34,-15,-56,-39c0,0,-23,-24,-34,-58c0,0,-13,-34,-12,-73c0,0,0,-42,14,-74c0,0,12,-33,38,-59c0,0,25,-27,65,-50c0,0,38,-25,89,-48ZM421,-14c-1,0,-3,0,-4,0c0,0,-87,0,-151,21c0,0,-65,23,-108,62c0,0,-45,39,-65,92c0,0,-23,52,-23,113c0,0,0,54,18,97c0,0,16,41,49,74c0,0,31,32,73,58c0,0,42,25,93,50c0,0,-44,24,-80,53c0,0,-37,28,-63,63c0,0,-26,34,-40,75c0,0,-15,40,-15,89c0,0,-1,52,19,102c0,0,18,49,58,87c0,0,39,37,103,61c0,0,62,23,151,23c0,0,71,0,127,-19c0,0,55,-21,95,-55c0,0,38,-35,58,-83c0,0,20,-49,20,-106c0,0,0,-51,-15,-88c0,0,-15,-38,-41,-68c0,0,-27,-31,-65,-54c0,0,-39,-25,-85,-48c0,0,57,-28,104,-58c0,0,46,-30,80,-66c0,0,33,-37,52,-78c0,0,18,-41,18,-91c0,0,-1,-73,-26,-129c0,0,-26,-59,-74,-97C684,66,636,26,568,6c0,0,-66,-20,-147,-20Z" 
id="f0_d"
transform="scale(0.001,-0.001)" />

<path d="M413,510c0,0,36,0,67,11c0,0,30,9,55,27c0,0,23,15,42,39c0,0,16,22,27,47v3c0,0,0,101,-15,174c0,0,-15,72,-41,119c0,0,-27,47,-62,70c0,0,-36,22,-81,22c0,0,-81,-1,-125,-71c0,0,-45,-71,-45,-206c0,0,0,-62,11,-107c0,0,11,-46,34,-73c0,0,22,-29,55,-41c0,0,33,-14,78,-14ZM350,-16c-1,0,-2,0,-3,0c0,0,-1,0,-2,0c-12,0,-68,0,-106,12c0,0,-44,9,-67,29c0,0,-27,18,-36,42c0,0,-11,23,-11,48c0,0,0,27,15,48c0,0,14,18,31,25c0,0,10,-25,26,-46c0,0,15,-22,37,-38c0,0,23,-17,51,-27c0,0,27,-10,61,-10c1,0,3,0,4,0c0,0,127,0,189,114c0,0,61,112,61,343c0,0,-17,-20,-38,-39c0,0,-23,-20,-50,-33c0,0,-28,-16,-61,-23c0,0,-34,-9,-74,-9c0,0,-67,0,-121,19c0,0,-56,19,-95,59c0,0,-40,38,-62,97c0,0,-21,58,-21,135c0,0,0,83,22,153c0,0,22,67,65,118c0,0,41,49,103,78c0,0,59,27,137,27c0,0,77,0,143,-30c0,0,64,-30,112,-92c0,0,48,-63,75,-160c0,0,25,-97,26,-231c0,0,0,-80,-10,-156c0,0,-10,-77,-31,-145c0,0,-23,-68,-55,-124c0,0,-33,-58,-79,-98C586,70,539,28,480,6c0,0,-57,-22,-130,-22Z" 
id="f0_z"
transform="scale(0.001,-0.001)" />

<path d="M197,0V27c0,0,71,2,92,13c0,0,21,10,29,29c0,0,9,18,9,109V725c0,0,0,110,-8,141c0,0,-5,24,-19,35c0,0,-14,11,-33,11c0,0,-28,0,-77,-23l-11,23l246,121h25V178c0,0,0,-85,7,-106c0,0,7,-21,29,-32c0,0,23,-11,91,-13V0Z" 
id="f1_l"
transform="scale(0.001,-0.001)" />

<path d="M247,-17c0,0,-91,0,-132,30c0,0,-42,31,-42,68c0,0,0,21,17,37c0,0,18,16,44,17c0,0,19,0,34,-6c0,0,14,-7,49,-31c0,0,56,-39,113,-39c0,0,88,0,154,66c0,0,66,66,66,161c0,0,0,92,-59,171c0,0,-59,80,-163,123c0,0,-81,34,-221,39l194,393H663L605,885H301L234,750c0,0,198,-29,313,-147c0,0,100,-102,100,-239c0,0,0,-80,-33,-148c0,0,-32,-68,-81,-116c0,0,-50,-47,-110,-77c0,0,-86,-40,-176,-40Z" 
id="f1_p"
transform="scale(0.001,-0.001)" />


</defs>
</svg>